<svg version="1.1" id="Layer_1" xmlns="http://www.w3.org/2000/svg" xmlns:xlink="http://www.w3.org/1999/xlink" x="0px" y="0px"
	 width="100%" viewBox="0 0 500 500" enable-background="new 0 0 500 500" xml:space="preserve">
<path fill="#FFFFFF" opacity="1.000000" stroke="none" 
	d="
M1.000000,172.000000 
	C1.000000,114.680855 1.000000,57.861713 1.000000,1.021286 
	C167.610855,1.021286 334.221710,1.021286 500.916290,1.021286 
	C500.916290,167.569214 500.916290,334.138458 500.916290,500.853882 
	C334.333435,500.853882 167.666733,500.853882 1.000000,500.853882 
	C1.000000,391.444824 1.000000,281.972412 1.000000,172.000000 
M139.080276,463.666016 
	C171.756958,482.140533 206.743057,492.687500 244.330139,494.214874 
	C299.904449,496.473145 350.261261,481.305634 394.951996,448.203735 
	C404.647736,441.022186 413.136566,432.211151 422.822144,423.970062 
	C437.302063,409.596252 449.206543,393.315765 459.326385,375.613953 
	C479.033997,341.141113 488.653534,303.904022 489.827881,264.439606 
	C490.366333,246.345413 487.919128,228.475525 484.192413,210.713043 
	C479.055695,186.230148 470.085419,163.367142 457.157654,141.073578 
	C457.112946,123.789474 457.660553,106.477890 456.860229,89.228844 
	C456.027283,71.276863 452.244324,53.746544 444.873718,37.209961 
	C436.292664,17.957695 413.855835,4.822243 394.759949,8.474797 
	C384.891602,10.362358 374.837830,12.706823 365.722046,16.764093 
	C352.461273,22.666222 339.971771,30.301279 326.380341,36.994728 
	C303.412262,29.834557 279.905762,25.744648 255.844025,26.143581 
	C243.106491,26.354765 230.277130,27.266953 217.695190,29.201971 
	C197.293625,32.339603 177.470520,37.908413 158.206863,46.914158 
	C151.065414,40.680046 144.248611,34.019241 136.721252,28.292377 
	C114.743073,11.571280 80.820831,21.906239 72.482559,48.110455 
	C69.806458,56.520477 68.300842,65.652168 68.243805,74.466522 
	C68.152695,88.548462 69.720100,102.641129 70.031693,117.254753 
	C51.958889,140.649017 38.826382,166.590714 30.606699,194.944687 
	C25.854137,211.338730 22.163734,227.987854 21.941195,245.882324 
	C21.039440,247.465164 20.127653,249.042374 19.237526,250.631729 
	C12.409282,262.823853 9.280300,275.937103 10.407176,289.834106 
	C12.220085,312.191467 21.924770,331.090912 36.674164,347.648529 
	C38.194450,349.355194 39.450657,351.297089 40.927807,353.864838 
	C41.314499,354.954163 41.620972,356.080109 42.099514,357.127472 
	C57.540390,390.921692 79.639915,419.644043 108.650444,442.801819 
	C118.057053,450.310699 128.612442,456.380432 139.080276,463.666016 
z"/>
<path fill="#5C2FB3" opacity="1.000000" stroke="none" 
	d="
M70.586319,116.729263 
	C69.720100,102.641129 68.152695,88.548462 68.243805,74.466522 
	C68.300842,65.652168 69.806458,56.520477 72.482559,48.110455 
	C80.820831,21.906239 114.743073,11.571280 136.721252,28.292377 
	C144.248611,34.019241 151.065414,40.680046 158.677551,47.319725 
	C166.814072,56.032669 174.609573,64.226021 182.071030,72.713066 
	C184.483856,75.457527 186.452606,76.256401 190.101761,75.091095 
	C210.022964,68.729523 230.486816,65.164436 251.414719,66.150703 
	C264.139771,66.750404 276.791138,68.860733 289.489685,70.154121 
	C290.852844,70.292969 292.903595,69.984138 293.634338,69.076782 
	C303.399109,56.951836 314.859009,46.643406 327.153412,37.197395 
	C339.971771,30.301279 352.461273,22.666222 365.722046,16.764093 
	C374.837830,12.706823 384.891602,10.362358 394.759949,8.474797 
	C413.855835,4.822243 436.292664,17.957695 444.873718,37.209961 
	C452.244324,53.746544 456.027283,71.276863 456.860229,89.228844 
	C457.660553,106.477890 457.112946,123.789474 457.151855,141.955826 
	C453.588654,168.175034 449.989227,193.506241 446.526184,218.856094 
	C446.084290,222.090469 445.680878,225.580429 446.410248,228.681351 
	C449.632599,242.380920 451.277252,256.141937 450.133484,270.231598 
	C447.325531,304.820984 433.285797,333.846436 407.464325,357.101379 
	C402.205322,361.837646 396.882355,366.502869 391.670349,371.128479 
	C395.738953,377.157898 399.653168,382.170654 402.715912,387.658600 
	C409.433167,399.694916 415.719177,411.971924 422.181274,424.150665 
	C413.136566,432.211151 404.647736,441.022186 394.951996,448.203735 
	C350.261261,481.305634 299.904449,496.473145 244.330139,494.214874 
	C206.743057,492.687500 171.756958,482.140533 138.934265,462.920410 
	C139.389023,454.549133 139.776718,446.899017 140.649948,439.304718 
	C141.538910,431.573456 140.215927,424.613220 135.617538,418.185791 
	C133.927109,415.822968 132.618332,412.928711 132.038010,410.092224 
	C131.219803,406.093018 131.240723,401.922119 130.878098,397.524200 
	C129.956467,397.257996 128.867294,396.934631 127.773254,396.628662 
	C102.515144,389.564240 77.972412,380.858337 56.520046,365.193176 
	C51.193665,361.303772 46.054581,357.157867 40.829399,353.129852 
	C39.450657,351.297089 38.194450,349.355194 36.674164,347.648529 
	C21.924770,331.090912 12.220085,312.191467 10.407176,289.834106 
	C9.280300,275.937103 12.409282,262.823853 19.237526,250.631729 
	C20.127653,249.042374 21.039440,247.465164 22.322786,245.375214 
	C29.281080,236.389755 37.591167,230.270599 47.440018,226.000244 
	C49.513279,225.101318 51.735874,222.887344 52.457268,220.787277 
	C59.511120,200.252762 68.754189,180.745865 79.120285,161.711380 
	C80.206459,159.716934 80.372238,156.713486 79.848862,154.434525 
	C76.952423,141.822220 73.710129,129.289352 70.586319,116.729263 
M112.042725,64.056892 
	C102.373535,62.998787 96.027374,66.141731 92.709183,73.631844 
	C89.217285,81.514053 92.122292,88.390724 103.107536,97.902763 
	C97.047768,109.210754 93.083473,120.906410 99.224464,134.434006 
	C102.795067,130.440247 105.966698,126.892746 109.730354,122.999817 
	C120.364700,114.150566 130.999054,105.301323 142.328415,95.873741 
	C137.339127,88.988251 132.691116,81.482590 126.911743,74.982948 
	C123.083549,70.677666 117.633812,67.814247 112.042725,64.056892 
M405.194244,145.751495 
	C409.691895,151.914444 414.189514,158.077408 418.691498,164.246307 
	C418.916595,164.066803 419.275543,163.916245 419.398987,163.654602 
	C419.677551,163.064163 419.858093,162.424332 420.046509,161.794998 
	C425.839935,142.441269 422.552155,124.306641 412.439026,107.211380 
	C410.898468,104.607231 410.720062,102.798416 412.186127,100.056770 
	C416.839203,91.355125 417.987488,82.060234 415.061066,72.549026 
	C411.613373,61.343639 400.493988,57.891445 390.256165,65.092369 
	C375.794800,76.275650 368.512482,92.236778 361.026581,108.088829 
	C365.886780,111.270927 370.736237,113.699753 374.670624,117.166924 
	C384.974579,126.247215 394.879059,135.780853 405.194244,145.751495 
M360.779968,384.428711 
	C354.854614,386.614655 348.929260,388.800629 342.298035,390.967438 
	C341.679993,391.266571 341.061981,391.565704 339.817047,391.805420 
	C339.212524,391.966156 338.607971,392.126892 337.255707,392.345245 
	C331.142914,393.911713 325.066132,395.640167 318.909393,397.008942 
	C308.099396,399.412048 297.240417,401.594940 285.616486,403.527100 
	C267.072357,405.115936 248.528214,406.704773 229.055435,408.180664 
	C222.704376,408.136963 216.353302,408.093231 209.145828,407.869446 
	C207.109772,407.882874 205.073715,407.896271 202.238754,407.664185 
	C185.187653,405.683716 168.136551,403.703247 150.439026,401.301086 
	C147.212250,400.774689 143.985474,400.248291 140.591949,399.694672 
	C139.439972,405.147247 139.327393,410.372314 143.388962,413.576233 
	C146.572891,416.087799 147.296509,418.937439 147.927994,422.295624 
	C149.815063,432.330872 154.497040,440.716766 162.835007,446.773499 
	C167.817810,450.393036 171.102310,449.595306 174.339737,444.283630 
	C181.884918,431.904083 193.419693,427.020813 207.622025,426.309479 
	C207.729492,427.356659 207.846603,428.147919 207.886047,428.943024 
	C208.048630,432.220093 208.428345,436.028259 212.297974,436.216339 
	C214.683502,436.332245 217.740814,434.485657 219.549515,432.607971 
	C228.575409,423.237915 239.521042,418.795807 252.387589,417.916718 
	C266.791107,416.932617 281.314545,416.262482 295.496246,413.792938 
	C319.851257,409.551788 342.194092,399.861481 362.727631,384.954956 
	C362.325897,384.731689 361.924164,384.508392 360.779968,384.428711 
M315.270660,87.106293 
	C261.620544,68.112061 209.354034,71.212730 159.050980,97.992638 
	C108.460373,124.925621 79.405571,168.975769 61.714058,222.669464 
	C89.086693,218.467438 113.673912,221.910202 134.576157,241.508926 
	C133.525055,241.744904 133.141190,241.966965 132.942551,241.856354 
	C113.637207,231.108047 92.820457,228.644089 71.132057,230.017899 
	C39.344742,232.031372 18.832718,253.497101 18.983175,285.312164 
	C19.074553,304.634369 26.794035,321.210602 38.418747,336.085236 
	C54.731144,356.958069 76.778893,369.863251 101.109840,378.862457 
	C142.313004,394.102081 185.205276,399.595917 229.566422,399.700958 
	C244.474991,398.496124 259.420837,397.633484 274.284302,396.014587 
	C304.431396,392.731079 333.820496,386.139923 361.957428,374.539703 
	C380.132782,367.046448 396.794525,357.321594 410.310669,341.707703 
	C439.469910,308.065735 448.620575,269.534302 436.391083,226.844131 
	C426.355194,191.811340 408.445190,160.685883 383.321228,134.204025 
	C372.517639,122.816528 360.068634,112.990067 349.038910,103.059219 
	C349.528107,103.145699 351.257202,103.451347 353.097992,103.776741 
	C355.687012,98.721657 358.097473,93.619095 360.854095,88.710945 
	C367.727509,76.472816 374.928711,64.378357 387.256958,56.721375 
	C402.532959,47.233585 420.032532,54.667248 424.149231,72.183067 
	C426.344513,81.523636 425.436768,90.614639 422.238129,99.657387 
	C421.480316,101.799805 421.634766,104.911331 422.649872,106.934792 
	C433.234100,128.032806 434.946808,149.454773 426.054108,171.574951 
	C425.319244,173.402832 425.581085,176.099243 426.360016,177.987808 
	C429.969116,186.738007 433.917572,195.348434 437.765747,203.999481 
	C438.160583,204.887100 438.696747,205.711838 439.565308,207.287933 
	C446.229340,170.527328 450.919281,134.598038 448.969208,98.115562 
	C447.961334,79.260033 445.240173,60.702614 437.943939,43.099743 
	C429.471893,22.659958 409.699493,12.904761 388.294067,18.313204 
	C364.683105,24.278923 343.331146,34.756035 324.805267,50.549114 
	C316.294128,57.804794 308.543121,65.952171 301.024048,73.143692 
	C306.655853,78.386322 311.304779,82.714005 315.999939,86.997314 
	C315.999939,86.997314 316.044525,86.951324 315.270660,87.106293 
M210.374374,445.171844 
	C206.560593,442.551819 202.746811,439.931763 197.987625,436.662231 
	C191.820129,438.133392 185.976349,442.278473 181.836288,449.077087 
	C176.031326,458.609772 166.617661,460.449158 157.564362,453.922363 
	C154.655792,451.825500 152.053253,449.304169 149.073044,446.775360 
	C148.776749,448.274109 148.475021,449.392334 148.349930,450.529938 
	C148.167984,452.184387 147.707581,453.961243 148.115021,455.485718 
	C148.548935,457.109314 149.493790,459.190582 150.833374,459.891846 
	C193.920364,482.447418 239.774750,490.383484 287.770172,483.653259 
	C331.505066,477.520447 370.198456,459.465027 403.681244,430.505707 
	C412.048065,423.269287 412.052582,423.273285 407.061096,413.151825 
	C406.398987,411.809204 405.805695,410.424438 405.042633,409.141144 
	C398.812225,398.663116 392.549042,388.204529 386.613007,378.270874 
	C375.768585,386.007019 366.280243,393.693359 355.940857,399.980042 
	C324.525452,419.081757 289.930267,426.734833 253.450272,427.033691 
	C242.275375,427.125214 232.635544,430.888214 225.276871,439.673401 
	C221.600067,444.063019 216.914032,446.131958 210.374374,445.171844 
M88.584229,95.891594 
	C83.526863,89.124832 81.294060,81.629112 83.577736,73.337860 
	C88.223633,56.470173 108.410065,49.382801 123.066887,59.506653 
	C133.573746,66.764015 140.825165,76.923485 147.200592,87.773712 
	C148.091492,89.289925 149.034317,90.775627 149.887878,92.168991 
	C158.878845,87.801834 167.383804,83.670738 176.315567,79.332336 
	C161.849091,62.883991 147.403015,46.497677 129.412598,33.925159 
	C118.162506,26.063082 103.047630,27.287464 91.955772,35.410889 
	C80.740356,43.624809 77.460365,55.740345 77.220673,68.378098 
	C76.931152,83.642410 77.685562,99.020355 79.360832,114.197601 
	C80.637054,125.759644 84.053490,137.085449 86.517776,148.516342 
	C87.114769,148.552765 87.711769,148.589172 88.308762,148.625580 
	C88.484474,145.085464 94.445671,144.426315 91.897675,139.493286 
	C85.842232,127.769737 86.085083,115.747337 90.804878,103.760742 
	C92.087677,100.502907 91.391045,98.472092 88.584229,95.891594 
z"/>
<path fill="#9CD4FC" opacity="1.000000" stroke="none" 
	d="
M422.501709,424.060364 
	C415.719177,411.971924 409.433167,399.694916 402.715912,387.658600 
	C399.653168,382.170654 395.738953,377.157898 391.670349,371.128479 
	C396.882355,366.502869 402.205322,361.837646 407.464325,357.101379 
	C433.285797,333.846436 447.325531,304.820984 450.133484,270.231598 
	C451.277252,256.141937 449.632599,242.380920 446.410248,228.681351 
	C445.680878,225.580429 446.084290,222.090469 446.526184,218.856094 
	C449.989227,193.506241 453.588654,168.175034 457.236786,142.379990 
	C470.085419,163.367142 479.055695,186.230148 484.192413,210.713043 
	C487.919128,228.475525 490.366333,246.345413 489.827881,264.439606 
	C488.653534,303.904022 479.033997,341.141113 459.326385,375.613953 
	C449.206543,393.315765 437.302063,409.596252 422.501709,424.060364 
z"/>
<path fill="#9CD4FC" opacity="1.000000" stroke="none" 
	d="
M326.766876,37.096062 
	C314.859009,46.643406 303.399109,56.951836 293.634338,69.076782 
	C292.903595,69.984138 290.852844,70.292969 289.489685,70.154121 
	C276.791138,68.860733 264.139771,66.750404 251.414719,66.150703 
	C230.486816,65.164436 210.022964,68.729523 190.101761,75.091095 
	C186.452606,76.256401 184.483856,75.457527 182.071030,72.713066 
	C174.609573,64.226021 166.814072,56.032669 158.995346,47.427082 
	C177.470520,37.908413 197.293625,32.339603 217.695190,29.201971 
	C230.277130,27.266953 243.106491,26.354765 255.844025,26.143581 
	C279.905762,25.744648 303.412262,29.834557 326.766876,37.096062 
z"/>
<path fill="#9CD3FC" opacity="1.000000" stroke="none" 
	d="
M40.878601,353.497345 
	C46.054581,357.157867 51.193665,361.303772 56.520046,365.193176 
	C77.972412,380.858337 102.515144,389.564240 127.773254,396.628662 
	C128.867294,396.934631 129.956467,397.257996 130.878098,397.524200 
	C131.240723,401.922119 131.219803,406.093018 132.038010,410.092224 
	C132.618332,412.928711 133.927109,415.822968 135.617538,418.185791 
	C140.215927,424.613220 141.538910,431.573456 140.649948,439.304718 
	C139.776718,446.899017 139.389023,454.549133 138.715317,462.641602 
	C128.612442,456.380432 118.057053,450.310699 108.650444,442.801819 
	C79.639915,419.644043 57.540390,390.921692 42.099514,357.127472 
	C41.620972,356.080109 41.314499,354.954163 40.878601,353.497345 
z"/>
<path fill="#9CD3FC" opacity="1.000000" stroke="none" 
	d="
M70.309006,116.992004 
	C73.710129,129.289352 76.952423,141.822220 79.848862,154.434525 
	C80.372238,156.713486 80.206459,159.716934 79.120285,161.711380 
	C68.754189,180.745865 59.511120,200.252762 52.457268,220.787277 
	C51.735874,222.887344 49.513279,225.101318 47.440018,226.000244 
	C37.591167,230.270599 29.281080,236.389755 22.408300,245.040283 
	C22.163734,227.987854 25.854137,211.338730 30.606699,194.944687 
	C38.826382,166.590714 51.958889,140.649017 70.309006,116.992004 
z"/>
<path fill="#FEFEFF" opacity="1.000000" stroke="none" 
	d="
M228.957336,399.325623 
	C185.205276,399.595917 142.313004,394.102081 101.109840,378.862457 
	C76.778893,369.863251 54.731144,356.958069 38.418747,336.085236 
	C26.794035,321.210602 19.074553,304.634369 18.983175,285.312164 
	C18.832718,253.497101 39.344742,232.031372 71.132057,230.017899 
	C92.820457,228.644089 113.637207,231.108047 132.942551,241.856354 
	C133.141190,241.966965 133.525055,241.744904 134.576157,241.508926 
	C113.673912,221.910202 89.086693,218.467438 61.714058,222.669464 
	C79.405571,168.975769 108.460373,124.925621 159.050980,97.992638 
	C209.354034,71.212730 261.620544,68.112061 315.644897,87.264267 
	C316.261139,87.401825 316.503113,87.381424 316.745087,87.361023 
	C316.481293,87.254578 316.217529,87.148132 315.953735,87.041687 
	C311.304779,82.714005 306.655853,78.386322 301.024048,73.143692 
	C308.543121,65.952171 316.294128,57.804794 324.805267,50.549114 
	C343.331146,34.756035 364.683105,24.278923 388.294067,18.313204 
	C409.699493,12.904761 429.471893,22.659958 437.943939,43.099743 
	C445.240173,60.702614 447.961334,79.260033 448.969208,98.115562 
	C450.919281,134.598038 446.229340,170.527328 439.565308,207.287933 
	C438.696747,205.711838 438.160583,204.887100 437.765747,203.999481 
	C433.917572,195.348434 429.969116,186.738007 426.360016,177.987808 
	C425.581085,176.099243 425.319244,173.402832 426.054108,171.574951 
	C434.946808,149.454773 433.234100,128.032806 422.649872,106.934792 
	C421.634766,104.911331 421.480316,101.799805 422.238129,99.657387 
	C425.436768,90.614639 426.344513,81.523636 424.149231,72.183067 
	C420.032532,54.667248 402.532959,47.233585 387.256958,56.721375 
	C374.928711,64.378357 367.727509,76.472816 360.854095,88.710945 
	C358.097473,93.619095 355.687012,98.721657 353.097992,103.776741 
	C351.257202,103.451347 349.528107,103.145699 349.038910,103.059219 
	C360.068634,112.990067 372.517639,122.816528 383.321228,134.204025 
	C408.445190,160.685883 426.355194,191.811340 436.391083,226.844131 
	C448.620575,269.534302 439.469910,308.065735 409.752380,341.827515 
	C407.750854,340.359039 406.259003,338.811951 404.871765,337.176239 
	C381.147552,309.202545 350.971619,296.915070 314.606384,301.231567 
	C290.457367,304.098053 270.178955,315.184235 253.938751,333.427155 
	C237.215195,352.213013 228.473755,374.019409 228.957336,399.325623 
M194.065521,275.531036 
	C194.393906,275.679077 194.722305,275.827118 194.999557,275.999359 
	C194.999557,275.999359 195.014694,275.944824 195.208450,276.565247 
	C195.786850,276.757019 196.365234,276.948792 196.977127,277.067383 
	C196.977127,277.067383 196.897034,277.059387 196.975769,277.709442 
	C197.358032,277.917023 197.740280,278.124603 198.665131,278.676880 
	C206.530792,284.193909 215.682968,285.762817 224.860275,287.455231 
	C247.986954,291.720093 271.056641,292.599792 294.086517,286.935974 
	C316.226624,281.490967 335.499420,271.659027 348.517700,251.133575 
	C348.670380,250.735031 348.823059,250.336487 348.996887,249.998138 
	C348.996887,249.998138 348.933136,249.996307 349.499176,249.719315 
	C349.673309,249.139099 349.847412,248.558884 349.984100,247.988708 
	C349.984100,247.988708 349.988312,248.027267 350.644592,247.796371 
	C366.830444,221.760468 364.151642,183.725052 344.120514,158.697617 
	C325.586670,135.540878 301.469208,124.443222 271.705292,125.842201 
	C246.535889,127.025215 226.033340,137.863739 209.196198,156.105484 
	C193.054031,173.594269 184.352249,194.814636 178.821426,217.608994 
	C175.755707,230.243881 173.825790,242.851334 179.007797,255.340729 
	C182.058655,262.693695 185.597748,269.855682 193.010590,273.988373 
	C193.010590,273.988373 192.994034,273.975708 193.012238,274.561951 
	C193.352463,274.705933 193.692673,274.849945 194.002945,274.997131 
	C194.002945,274.997131 194.004745,274.967102 194.065521,275.531036 
M111.382126,146.902695 
	C97.012947,163.545624 91.159447,183.823273 85.880165,205.495728 
	C105.048759,198.493896 122.716103,190.943512 136.958786,177.352722 
	C140.991196,173.504883 144.690842,168.950546 147.324020,164.063400 
	C154.317947,151.082870 145.530945,136.043961 131.255676,136.241608 
	C123.272598,136.352127 117.190292,140.806061 111.382126,146.902695 
M31.993713,285.287994 
	C33.594799,287.393555 34.927902,289.789307 36.841434,291.556549 
	C47.468266,301.371063 59.984013,304.815643 73.780670,300.376556 
	C89.279762,295.389740 100.461914,285.426971 104.259949,268.962799 
	C107.086464,256.710022 98.770187,243.779724 86.382355,242.200882 
	C72.035339,240.372330 57.739075,241.555878 44.581963,248.496307 
	C30.905527,255.710709 25.830206,270.182465 31.993713,285.287994 
M119.090073,203.587357 
	C116.479897,206.534027 113.869720,209.480698 110.793137,212.953903 
	C114.731857,213.906082 117.909470,215.191284 121.144783,215.358154 
	C130.363785,215.833694 139.689148,216.654083 148.804001,215.710159 
	C153.255188,215.249207 157.934967,211.817764 161.433014,208.569641 
	C166.423920,203.935257 166.619553,197.302628 163.287323,191.651505 
	C160.014496,186.101059 154.179810,183.710495 147.379242,185.353165 
	C136.102859,188.076935 127.665565,195.314911 119.090073,203.587357 
z"/>
<path fill="#FEFEFE" opacity="1.000000" stroke="none" 
	d="
M210.749710,445.266113 
	C216.914032,446.131958 221.600067,444.063019 225.276871,439.673401 
	C232.635544,430.888214 242.275375,427.125214 253.450272,427.033691 
	C289.930267,426.734833 324.525452,419.081757 355.940857,399.980042 
	C366.280243,393.693359 375.768585,386.007019 386.613007,378.270874 
	C392.549042,388.204529 398.812225,398.663116 405.042633,409.141144 
	C405.805695,410.424438 406.398987,411.809204 407.061096,413.151825 
	C412.052582,423.273285 412.048065,423.269287 403.681244,430.505707 
	C370.198456,459.465027 331.505066,477.520447 287.770172,483.653259 
	C239.774750,490.383484 193.920364,482.447418 150.833374,459.891846 
	C149.493790,459.190582 148.548935,457.109314 148.115021,455.485718 
	C147.707581,453.961243 148.167984,452.184387 148.349930,450.529938 
	C148.475021,449.392334 148.776749,448.274109 149.073044,446.775360 
	C152.053253,449.304169 154.655792,451.825500 157.564362,453.922363 
	C166.617661,460.449158 176.031326,458.609772 181.836288,449.077087 
	C185.976349,442.278473 191.820129,438.133392 197.987625,436.662231 
	C202.746811,439.931763 206.560593,442.551819 210.749710,445.266113 
z"/>
<path fill="#FEA5C3" opacity="1.000000" stroke="none" 
	d="
M229.261871,399.513306 
	C228.473755,374.019409 237.215195,352.213013 253.938751,333.427155 
	C270.178955,315.184235 290.457367,304.098053 314.606384,301.231567 
	C350.971619,296.915070 381.147552,309.202545 404.871765,337.176239 
	C406.259003,338.811951 407.750854,340.359039 409.500427,342.070740 
	C396.794525,357.321594 380.132782,367.046448 361.957428,374.539703 
	C333.820496,386.139923 304.431396,392.731079 274.284302,396.014587 
	C259.420837,397.633484 244.474991,398.496124 229.261871,399.513306 
M358.022095,313.422394 
	C357.190857,312.876831 356.394928,312.265778 355.523102,311.795471 
	C342.538361,304.790955 328.678711,303.225067 314.513702,306.440491 
	C300.468353,309.628693 287.917725,315.639557 279.875092,328.597473 
	C274.141693,337.834839 275.391235,349.497314 282.876312,357.447296 
	C292.794861,367.981903 305.716919,370.922150 319.134735,370.763031 
	C333.611481,370.591370 347.317780,366.424866 358.586548,356.629028 
	C371.878235,345.074677 375.832001,326.607697 358.022095,313.422394 
z"/>
<path fill="#FDFCFE" opacity="1.000000" stroke="none" 
	d="
M88.804298,96.183769 
	C91.391045,98.472092 92.087677,100.502907 90.804878,103.760742 
	C86.085083,115.747337 85.842232,127.769737 91.897675,139.493286 
	C94.445671,144.426315 88.484474,145.085464 88.308762,148.625580 
	C87.711769,148.589172 87.114769,148.552765 86.517776,148.516342 
	C84.053490,137.085449 80.637054,125.759644 79.360832,114.197601 
	C77.685562,99.020355 76.931152,83.642410 77.220673,68.378098 
	C77.460365,55.740345 80.740356,43.624809 91.955772,35.410889 
	C103.047630,27.287464 118.162506,26.063082 129.412598,33.925159 
	C147.403015,46.497677 161.849091,62.883991 176.315567,79.332336 
	C167.383804,83.670738 158.878845,87.801834 149.887878,92.168991 
	C149.034317,90.775627 148.091492,89.289925 147.200592,87.773712 
	C140.825165,76.923485 133.573746,66.764015 123.066887,59.506653 
	C108.410065,49.382801 88.223633,56.470173 83.577736,73.337860 
	C81.294060,81.629112 83.526863,89.124832 88.804298,96.183769 
z"/>
<path fill="#FBECF4" opacity="1.000000" stroke="none" 
	d="
M203.037659,407.909668 
	C205.073715,407.896271 207.109772,407.882874 209.572174,408.385529 
	C210.039322,410.560913 209.849411,412.265839 210.166550,413.870544 
	C210.949463,417.831665 214.854492,420.654877 217.811264,418.714691 
	C222.240967,415.808044 225.961792,411.821106 229.984085,408.293579 
	C248.528214,406.704773 267.072357,405.115936 286.495819,403.730011 
	C301.701782,403.100433 315.771942,400.796143 329.411438,396.267029 
	C332.387756,395.278748 335.145203,393.631439 338.003448,392.287659 
	C338.607971,392.126892 339.212524,391.966156 340.496155,391.854736 
	C341.784821,391.598236 342.394379,391.292389 343.003906,390.986572 
	C348.929260,388.800629 354.854614,386.614655 361.330383,384.623138 
	C362.022064,384.978302 362.163300,385.139008 362.304535,385.299744 
	C342.194092,399.861481 319.851257,409.551788 295.496246,413.792938 
	C281.314545,416.262482 266.791107,416.932617 252.387589,417.916718 
	C239.521042,418.795807 228.575409,423.237915 219.549515,432.607971 
	C217.740814,434.485657 214.683502,436.332245 212.297974,436.216339 
	C208.428345,436.028259 208.048630,432.220093 207.886047,428.943024 
	C207.846603,428.147919 207.729492,427.356659 207.622025,426.309479 
	C193.419693,427.020813 181.884918,431.904083 174.339737,444.283630 
	C171.102310,449.595306 167.817810,450.393036 162.835007,446.773499 
	C154.497040,440.716766 149.815063,432.330872 147.927994,422.295624 
	C147.296509,418.937439 146.572891,416.087799 143.388962,413.576233 
	C139.327393,410.372314 139.439972,405.147247 140.591949,399.694672 
	C143.985474,400.248291 147.212250,400.774689 150.741470,401.920898 
	C152.837341,410.790344 156.062698,418.191620 162.477982,424.081207 
	C168.119217,429.260162 171.341812,429.095825 176.341461,423.184479 
	C178.859833,420.206848 181.600845,416.991302 184.950256,415.237701 
	C190.686050,412.234772 196.978790,410.295563 203.037659,407.909668 
z"/>
<path fill="#FCBBD3" opacity="1.000000" stroke="none" 
	d="
M390.884888,64.855225 
	C400.493988,57.891445 411.613373,61.343639 415.061066,72.549026 
	C417.987488,82.060234 416.839203,91.355125 412.186127,100.056770 
	C410.720062,102.798416 410.898468,104.607231 412.439026,107.211380 
	C422.552155,124.306641 425.839935,142.441269 420.046509,161.794998 
	C419.858093,162.424332 419.677551,163.064163 419.398987,163.654602 
	C419.275543,163.916245 418.916595,164.066803 418.691498,164.246307 
	C414.189514,158.077408 409.691895,151.914444 405.088104,144.976547 
	C403.436310,136.002335 402.380066,127.667870 400.165802,119.653336 
	C398.785522,114.657356 394.095428,110.254936 393.751343,105.384064 
	C393.409119,100.539818 396.644379,95.442589 398.313324,90.457108 
	C398.418488,90.142921 398.618591,89.843254 398.650696,89.524384 
	C399.588776,80.193665 399.135071,71.295120 390.884888,64.855225 
z"/>
<path fill="#FEA4C3" opacity="1.000000" stroke="none" 
	d="
M390.570526,64.973801 
	C399.135071,71.295120 399.588776,80.193665 398.650696,89.524384 
	C398.618591,89.843254 398.418488,90.142921 398.313324,90.457108 
	C396.644379,95.442589 393.409119,100.539818 393.751343,105.384064 
	C394.095428,110.254936 398.785522,114.657356 400.165802,119.653336 
	C402.380066,127.667870 403.436310,136.002335 404.962341,144.667694 
	C394.879059,135.780853 384.974579,126.247215 374.670624,117.166924 
	C370.736237,113.699753 365.886780,111.270927 361.026581,108.088829 
	C368.512482,92.236778 375.794800,76.275650 390.570526,64.973801 
z"/>
<path fill="#FDA4C3" opacity="1.000000" stroke="none" 
	d="
M112.909996,64.305344 
	C117.633812,67.814247 123.083549,70.677666 126.911743,74.982948 
	C132.691116,81.482590 137.339127,88.988251 142.328415,95.873741 
	C130.999054,105.301323 120.364700,114.150566 109.393051,122.690613 
	C107.952019,113.004997 111.721451,104.879379 115.968834,97.057655 
	C100.649384,85.057472 101.078506,72.175690 112.909996,64.305344 
z"/>
<path fill="#FCBBD3" opacity="1.000000" stroke="none" 
	d="
M112.476364,64.181122 
	C101.078506,72.175690 100.649384,85.057472 115.968834,97.057655 
	C111.721451,104.879379 107.952019,113.004997 109.097046,122.863327 
	C105.966698,126.892746 102.795067,130.440247 99.224464,134.434006 
	C93.083473,120.906410 97.047768,109.210754 103.107536,97.902763 
	C92.122292,88.390724 89.217285,81.514053 92.709183,73.631844 
	C96.027374,66.141731 102.373535,62.998787 112.476364,64.181122 
z"/>
<path fill="#FDFDFE" opacity="1.000000" stroke="none" 
	d="
M202.638199,407.786926 
	C196.978790,410.295563 190.686050,412.234772 184.950256,415.237701 
	C181.600845,416.991302 178.859833,420.206848 176.341461,423.184479 
	C171.341812,429.095825 168.119217,429.260162 162.477982,424.081207 
	C156.062698,418.191620 152.837341,410.790344 151.064682,402.131744 
	C168.136551,403.703247 185.187653,405.683716 202.638199,407.786926 
z"/>
<path fill="#FFFFFF" opacity="1.000000" stroke="none" 
	d="
M229.519760,408.237122 
	C225.961792,411.821106 222.240967,415.808044 217.811264,418.714691 
	C214.854492,420.654877 210.949463,417.831665 210.166550,413.870544 
	C209.849411,412.265839 210.039322,410.560913 210.000366,408.475555 
	C216.353302,408.093231 222.704376,408.136963 229.519760,408.237122 
z"/>
<path fill="#F4EFF9" opacity="1.000000" stroke="none" 
	d="
M337.629578,392.316467 
	C335.145203,393.631439 332.387756,395.278748 329.411438,396.267029 
	C315.771942,400.796143 301.701782,403.100433 286.888550,403.901520 
	C297.240417,401.594940 308.099396,399.412048 318.909393,397.008942 
	C325.066132,395.640167 331.142914,393.911713 337.629578,392.316467 
z"/>
<path fill="#F4EFF9" opacity="1.000000" stroke="none" 
	d="
M342.650970,390.976990 
	C342.394379,391.292389 341.784821,391.598236 340.809631,391.884460 
	C341.061981,391.565704 341.679993,391.266571 342.650970,390.976990 
z"/>
<path fill="#FBECF4" opacity="1.000000" stroke="none" 
	d="
M361.701630,384.551331 
	C361.924164,384.508392 362.325897,384.731689 362.516083,385.127350 
	C362.163300,385.139008 362.022064,384.978302 361.701630,384.551331 
z"/>
<path fill="#592BB1" opacity="1.000000" stroke="none" 
	d="
M347.968536,251.496902 
	C335.499420,271.659027 316.226624,281.490967 294.086517,286.935974 
	C271.056641,292.599792 247.986954,291.720093 224.860275,287.455231 
	C215.682968,285.762817 206.530792,284.193909 198.303680,278.193390 
	C197.593826,277.493073 197.245422,277.276215 196.897034,277.059387 
	C196.897034,277.059387 196.977127,277.067383 196.858521,276.791138 
	C196.164841,276.324890 195.589767,276.134857 195.014694,275.944824 
	C195.014694,275.944824 194.999557,275.999359 195.025803,275.681763 
	C194.702942,275.231812 194.353836,275.099457 194.004745,274.967102 
	C194.004745,274.967102 194.002945,274.997131 194.028748,274.683777 
	C193.701035,274.238831 193.347534,274.107269 192.994034,273.975708 
	C192.994034,273.975708 193.010590,273.988373 193.107361,273.636658 
	C187.393997,264.628418 183.605316,255.309570 185.217758,244.684891 
	C187.052597,232.594955 190.979202,221.116943 197.062027,210.487839 
	C212.973312,182.684479 237.377975,166.152420 268.083710,159.150497 
	C295.943420,152.797546 320.652252,159.677597 340.291870,180.952988 
	C351.988678,193.624039 357.315765,209.045074 355.076111,226.369278 
	C354.130249,233.685562 351.728363,240.813644 349.988312,248.027267 
	C349.988312,248.027267 349.984100,247.988708 349.697357,248.087982 
	C349.251465,248.790268 349.092285,249.393295 348.933136,249.996307 
	C348.933136,249.996307 348.996887,249.998138 348.668579,250.098450 
	C348.216370,250.631485 348.092468,251.064194 347.968536,251.496902 
M294.833221,240.075882 
	C296.072540,226.101639 293.021942,213.414001 284.279083,202.120224 
	C269.114777,182.531403 238.559662,182.517853 223.723709,202.327805 
	C210.394257,220.126190 209.333710,239.056763 219.296616,258.588409 
	C229.475647,278.543732 254.506760,286.008453 273.159668,274.755951 
	C285.825989,267.114929 292.253418,255.236938 294.833221,240.075882 
z"/>
<path fill="#F15792" opacity="1.000000" stroke="none" 
	d="
M350.316467,247.911819 
	C351.728363,240.813644 354.130249,233.685562 355.076111,226.369278 
	C357.315765,209.045074 351.988678,193.624039 340.291870,180.952988 
	C320.652252,159.677597 295.943420,152.797546 268.083710,159.150497 
	C237.377975,166.152420 212.973312,182.684479 197.062027,210.487839 
	C190.979202,221.116943 187.052597,232.594955 185.217758,244.684891 
	C183.605316,255.309570 187.393997,264.628418 193.113983,273.644684 
	C185.597748,269.855682 182.058655,262.693695 179.007797,255.340729 
	C173.825790,242.851334 175.755707,230.243881 178.821426,217.608994 
	C184.352249,194.814636 193.054031,173.594269 209.196198,156.105484 
	C226.033340,137.863739 246.535889,127.025215 271.705292,125.842201 
	C301.469208,124.443222 325.586670,135.540878 344.120514,158.697617 
	C364.151642,183.725052 366.830444,221.760468 350.316467,247.911819 
z"/>
<path fill="#F25892" opacity="1.000000" stroke="none" 
	d="
M111.630135,146.644745 
	C117.190292,140.806061 123.272598,136.352127 131.255676,136.241608 
	C145.530945,136.043961 154.317947,151.082870 147.324020,164.063400 
	C144.690842,168.950546 140.991196,173.504883 136.958786,177.352722 
	C122.716103,190.943512 105.048759,198.493896 85.880165,205.495728 
	C91.159447,183.823273 97.012947,163.545624 111.630135,146.644745 
z"/>
<path fill="#5A2CB2" opacity="1.000000" stroke="none" 
	d="
M31.829548,284.945862 
	C25.830206,270.182465 30.905527,255.710709 44.581963,248.496307 
	C57.739075,241.555878 72.035339,240.372330 86.382355,242.200882 
	C98.770187,243.779724 107.086464,256.710022 104.259949,268.962799 
	C100.461914,285.426971 89.279762,295.389740 73.780670,300.376556 
	C59.984013,304.815643 47.468266,301.371063 36.841434,291.556549 
	C34.927902,289.789307 33.594799,287.393555 31.829548,284.945862 
M33.000996,271.318909 
	C33.753277,278.837860 39.086758,284.691742 46.478920,285.905823 
	C58.805248,287.930237 69.040001,284.064880 76.951042,274.464508 
	C85.532036,264.051147 81.058670,251.112106 67.996574,247.799759 
	C60.495972,245.897720 53.377102,246.931656 46.833225,250.686615 
	C39.242382,255.042343 33.129833,260.746033 33.000996,271.318909 
z"/>
<path fill="#5A2DB2" opacity="1.000000" stroke="none" 
	d="
M119.342224,203.341003 
	C127.665565,195.314911 136.102859,188.076935 147.379242,185.353165 
	C154.179810,183.710495 160.014496,186.101059 163.287323,191.651505 
	C166.619553,197.302628 166.423920,203.935257 161.433014,208.569641 
	C157.934967,211.817764 153.255188,215.249207 148.804001,215.710159 
	C139.689148,216.654083 130.363785,215.833694 121.144783,215.358154 
	C117.909470,215.191284 114.731857,213.906082 110.793137,212.953903 
	C113.869720,209.480698 116.479897,206.534027 119.342224,203.341003 
z"/>
<path fill="#F15792" opacity="1.000000" stroke="none" 
	d="
M195.111572,276.255035 
	C195.589767,276.134857 196.164841,276.324890 196.841766,276.827759 
	C196.365234,276.948792 195.786850,276.757019 195.111572,276.255035 
z"/>
<path fill="#F15792" opacity="1.000000" stroke="none" 
	d="
M349.216156,249.857819 
	C349.092285,249.393295 349.251465,248.790268 349.716064,248.082962 
	C349.847412,248.558884 349.673309,249.139099 349.216156,249.857819 
z"/>
<path fill="#F15792" opacity="1.000000" stroke="none" 
	d="
M348.243103,251.315247 
	C348.092468,251.064194 348.216370,250.631485 348.658020,250.068359 
	C348.823059,250.336487 348.670380,250.735031 348.243103,251.315247 
z"/>
<path fill="#F15792" opacity="1.000000" stroke="none" 
	d="
M193.003143,274.268829 
	C193.347534,274.107269 193.701035,274.238831 194.043716,274.682159 
	C193.692673,274.849945 193.352463,274.705933 193.003143,274.268829 
z"/>
<path fill="#F15792" opacity="1.000000" stroke="none" 
	d="
M194.035126,275.249084 
	C194.353836,275.099457 194.702942,275.231812 195.051376,275.669647 
	C194.722305,275.827118 194.393906,275.679077 194.035126,275.249084 
z"/>
<path fill="#F15792" opacity="1.000000" stroke="none" 
	d="
M196.936401,277.384399 
	C197.245422,277.276215 197.593826,277.493073 198.032379,278.021057 
	C197.740280,278.124603 197.358032,277.917023 196.936401,277.384399 
z"/>
<path fill="#5C2FB3" opacity="1.000000" stroke="none" 
	d="
M315.976837,87.019501 
	C316.217529,87.148132 316.481293,87.254578 316.745087,87.361023 
	C316.503113,87.381424 316.261139,87.401825 316.031860,87.186783 
	C316.044525,86.951324 315.999939,86.997314 315.976837,87.019501 
z"/>
<path fill="#FFB5CE" opacity="1.000000" stroke="none" 
	d="
M358.327515,313.618927 
	C375.832001,326.607697 371.878235,345.074677 358.586548,356.629028 
	C347.317780,366.424866 333.611481,370.591370 319.134735,370.763031 
	C305.716919,370.922150 292.794861,367.981903 282.876312,357.447296 
	C275.391235,349.497314 274.141693,337.834839 279.875092,328.597473 
	C287.917725,315.639557 300.468353,309.628693 314.513702,306.440491 
	C328.678711,303.225067 342.538361,304.790955 355.523102,311.795471 
	C356.394928,312.265778 357.190857,312.876831 358.327515,313.618927 
z"/>
<path fill="#F5C361" opacity="1.000000" stroke="none" 
	d="
M294.795776,240.524475 
	C292.253418,255.236938 285.825989,267.114929 273.159668,274.755951 
	C254.506760,286.008453 229.475647,278.543732 219.296616,258.588409 
	C209.333710,239.056763 210.394257,220.126190 223.723709,202.327805 
	C238.559662,182.517853 269.114777,182.531403 284.279083,202.120224 
	C293.021942,213.414001 296.072540,226.101639 294.795776,240.524475 
M226.541702,205.085007 
	C222.037323,210.463715 219.343155,216.644073 219.039810,223.649063 
	C218.408676,238.223557 231.390594,253.859909 249.669113,252.166901 
	C260.622864,251.152344 268.716827,246.284180 273.786163,237.068756 
	C278.821869,227.914490 278.713440,218.015640 273.261230,208.987625 
	C263.283264,192.465668 242.269058,190.609100 226.541702,205.085007 
z"/>
<path fill="#6737C4" opacity="1.000000" stroke="none" 
	d="
M33.000824,270.893219 
	C33.129833,260.746033 39.242382,255.042343 46.833225,250.686615 
	C53.377102,246.931656 60.495972,245.897720 67.996574,247.799759 
	C81.058670,251.112106 85.532036,264.051147 76.951042,274.464508 
	C69.040001,284.064880 58.805248,287.930237 46.478920,285.905823 
	C39.086758,284.691742 33.753277,278.837860 33.000824,270.893219 
z"/>
<path fill="#FBCF78" opacity="1.000000" stroke="none" 
	d="
M226.774200,204.807434 
	C242.269058,190.609100 263.283264,192.465668 273.261230,208.987625 
	C278.713440,218.015640 278.821869,227.914490 273.786163,237.068756 
	C268.716827,246.284180 260.622864,251.152344 249.669113,252.166901 
	C231.390594,253.859909 218.408676,238.223557 219.039810,223.649063 
	C219.343155,216.644073 222.037323,210.463715 226.774200,204.807434 
z"/>
</svg>