<?xml version="1.0" encoding="utf-8"?>
<!-- Generator: Adobe Illustrator 27.5.0, SVG Export Plug-In . SVG Version: 6.00 Build 0)  -->
<svg version="1.1" xmlns="http://www.w3.org/2000/svg" xmlns:xlink="http://www.w3.org/1999/xlink" x="0px" y="0px"
	 viewBox="0 0 500 500" style="enable-background:new 0 0 500 500;" xml:space="preserve">
<g id="BACKGROUND">
	<rect style="fill:#FFFFFF;" width="500" height="500"/>
</g>
<g id="OBJECTS">
	<g>
		<g>
			<g>
				<g>
					<path style="fill:#774620;" d="M200.512,287.156c-0.318,12.384-11.114,50.701-14.607,67.425
						c-0.741,3.387-6.034,3.176-5.399-0.211c3.811-20.958,9.421-34.189,14.713-64.038c0.212-8.15-3.387-4.446-6.562-0.106
						c-10.691,13.972-19.9,29.002-31.119,48.796c-0.635,0.846-1.376,1.27-2.117,1.27c-6.668,0-6.668-6.986-6.456-12.384
						c0.317-5.504,1.482-11.114,1.164-16.724c-0.318-4.552-6.88,3.07-7.939,4.128c-9.526,10.691-15.877,24.345-21.382,37.682
						c-0.635,2.223-2.752,3.493-4.657,1.694c-1.27-1.164-0.847-2.117-0.529-3.599c2.328-11.22,4.551-22.545,6.35-33.977
						c-12.701,4.34-33.447,2.964-47.949,2.964c-3.387,0-3.705-5.398-0.317-5.398c16.3,0,33.765,1.587,49.219-3.599
						c1.482-8.574,1.376-23.392,8.044-30.802c3.07-3.493,9.526-5.822,13.654-1.27c3.599,4.022,3.07,11.855,1.376,16.935
						c-3.175,8.891-9.738,15.348-18.1,19.053c-0.847,5.186-1.694,10.373-2.646,15.559c3.705-6.986,8.045-14.078,14.396-20.534
						c2.964-3.069,8.044-8.044,12.701-5.081c5.292,3.282,2.858,12.913,2.435,17.57c-0.212,3.281-1.058,7.092-0.212,10.479
						c9.103-16.194,18.629-32.601,31.331-47.949c2.223-2.54,4.975-5.821,8.68-5.927C198.924,278.9,200.618,283.663,200.512,287.156z
						 M128.959,308.22c5.61-3.387,10.162-8.468,12.172-15.137c1.059-3.599,0.953-16.724-6.033-9.209
						C130.229,289.379,130.123,300.599,128.959,308.22z"/>
					<path style="fill:#774620;" d="M229.404,313.194c0.741,4.975-0.635,10.797-3.387,15.454
						c-6.245,10.585-20.852,15.137-25.086-0.635c-2.435-10.267,3.811-22.333,15.136-21.804
						C221.889,301.975,228.346,306.526,229.404,313.194z M222.207,325.262c1.694-2.964,2.54-6.033,2.435-9.103
						c0-9.632-9.103-5.822-6.563-1.164c1.588,2.54-1.905,4.763-3.387,2.223c-1.27-2.011-1.693-4.128-1.058-6.139
						c-6.351,0.847-8.68,8.997-7.938,14.607C207.176,337.222,217.549,333.2,222.207,325.262z"/>
					<path style="fill:#774620;" d="M273.118,327.908c-3.07,2.858-8.468,8.15-13.125,7.303c-3.069-0.529-3.917-3.281-3.705-6.033
						c0.106-1.694,2.329-14.925,0.741-16.195c-5.715-4.446-18.735,18.735-21.063,22.122c-1.058,1.588-4.763,1.799-4.975-0.741
						c-0.106-0.423-0.106-0.952,0.106-1.587c1.058-8.468,3.387-17.359,5.61-25.509c0.846-3.281,7.197-2.752,6.033,0.423
						c-1.693,4.446-3.493,9.103-4.658,14.925c1.482-2.223,2.752-4.128,4.446-6.139c3.493-4.128,8.256-9.632,14.29-9.209
						c8.15,0.635,5.927,11.008,5.398,16.301c-2.434,12.278,4.234,3.916,7.621,0.741C272.378,321.98,275.659,325.579,273.118,327.908
						z"/>
					<path style="fill:#774620;" d="M297.357,309.808c-0.318-3.917-2.435-6.668-6.562-6.033c-3.176,0.529-6.88,2.54-8.468,5.504
						c-1.693,3.387,1.799,4.763,4.552,5.504c4.34,1.164,8.891,1.376,12.384,4.34c6.986,5.927,3.07,16.195-2.858,21.804
						c-6.562,6.139-18.947,9.526-25.721,2.752c-2.54-2.54-3.07-6.245-1.482-9.632c2.117-4.34,6.774-6.669,11.219-7.939
						c3.281-1.059,4.552,4.128,1.27,5.186c-2.858,0.741-9.526,3.493-7.939,7.515c6.245,11.008,30.59-5.504,22.651-14.819
						c-2.435-2.858-7.092-2.964-10.584-3.811c-3.811-0.952-8.045-2.646-9.103-6.88c-1.694-6.88,5.504-12.702,11.538-14.395
						c3.07-0.847,6.562-0.847,9.315,0.847c3.599,2.117,4.869,6.139,5.186,10.056C303.072,313.301,297.674,313.194,297.357,309.808z"
						/>
					<path style="fill:#774620;" d="M342.021,298.8c-5.609,0-17.465-0.106-22.969-0.212c-3.07,11.326-6.88,23.816-8.574,35.988
						c-0.424,4.446-0.424,12.066,6.35,7.515c5.504-4.234,9.421-11.326,12.384-17.571c1.482-3.069,6.139-0.423,4.658,2.752
						c-3.176,6.668-7.303,13.654-13.019,18.417c-3.917,3.281-9.844,5.08-13.548,0.423c-3.387-4.022-2.54-10.585-1.588-15.348
						c2.117-10.797,4.869-21.593,7.621-32.284c-3.387,0-6.774,0-10.161,0c-3.493-0.105-3.493-5.398,0-5.398c3.81,0,7.727,0,11.537,0
						c0.952-3.387,1.799-6.774,2.646-10.161c0.847-3.387,6.034-2.011,5.187,1.376c-0.741,2.964-1.482,5.928-2.223,8.891
						c5.186,0.106,16.512,0.212,21.698,0.212C345.409,293.507,345.409,298.905,342.021,298.8z"/>
					<path style="fill:#774620;" d="M363.613,325.367c-3.07,6.88-9.527,12.702-16.301,15.665
						c-7.303,2.858-14.819,0.424-16.618-7.621c-2.329-10.268,1.905-21.699,8.891-29.426c2.117-2.223,5.927-5.504,9.421-4.128
						c1.905,0.741,3.599,2.434,4.128,4.446c2.223,8.997-10.585,16.195-16.512,19.688c-0.318,0.106-0.741,0.317-0.953,0.317
						c-0.846,5.928,0.212,14.184,7.303,12.384c6.88-1.799,13.76-7.939,16.724-14.395
						C361.073,319.122,365.095,322.298,363.613,325.367z M337.786,316.899c3.705-2.117,7.303-4.869,9.315-8.468
						c2.964-4.34-1.164-4.022-3.705-0.529C341.067,310.443,339.163,313.618,337.786,316.899z"/>
					<path style="fill:#774620;" d="M426.061,326.108c-9.315,0.423-18.629,0.952-27.944,0.846c-4.974,0-11.219,0.212-15.453-2.646
						c-4.022-2.646-4.34-7.303-2.858-11.537c0.212-0.846,1.905-3.916,0.741-3.281c-7.409,3.281-15.56,19.793-16.83,28.156
						c-0.529,3.387-5.715,2.011-5.186-1.376c1.587-10.267,3.599-20.323,6.139-30.378c0.846-3.387,6.033-1.905,5.186,1.482
						c-0.529,2.223-1.164,4.552-1.694,6.88c3.176-4.022,8.891-11.961,15.454-10.268c2.435,0.635,4.234,2.434,3.493,4.975
						c-0.74,2.858-4.022,6.669-2.54,9.738c0.953,2.011,4.128,2.328,6.034,2.54c11.431,1.27,23.286,0.106,35.459-0.529
						C429.554,320.499,429.554,325.897,426.061,326.108z"/>
				</g>
			</g>
			<g>
				<path style="fill:#774620;" d="M369.366,339.024c-20.767,27.51-50.893,47.29-84.466,55.173
					c-34.887,8.191-72.373,3.327-103.934-13.671c-17.136-9.229-32.262-21.785-44.641-36.791c-1.643-1.991-4.464,0.858-2.834,2.834
					c22.866,27.717,55.294,46.937,90.729,53.177c36.004,6.34,73.729-0.443,105.077-19.321c16.916-10.187,31.642-23.63,43.53-39.378
					C374.381,338.988,370.903,336.988,369.366,339.024L369.366,339.024z"/>
				<path style="fill:#774620;" d="M399.332,283.729c8.252-37.141,2.532-76.565-16.483-109.566
					c-16.834-29.216-43.345-52.295-74.539-65.054c-32.465-13.278-69.454-14.747-102.906-4.232
					c-32.233,10.132-60.508,31.127-79.704,58.909c-20.564,29.761-29.821,66.631-25.914,102.586
					c0.634,5.835,1.597,11.623,2.87,17.352c0.559,2.517,4.424,1.452,3.865-1.065c-8.042-36.202-2.353-74.668,16.256-106.778
					c16.409-28.315,42.252-50.92,72.626-63.175c31.592-12.746,67.25-14.21,99.776-4.072c31.331,9.765,58.998,30.179,77.65,57.175
					c20.028,28.986,29.023,64.519,25.473,99.557c-0.59,5.821-1.565,11.587-2.833,17.298
					C394.909,285.176,398.772,286.25,399.332,283.729L399.332,283.729z"/>
			</g>
			<g>
				<path style="fill:#774620;" d="M186.918,156.848c0.008,0.009,0.014,0.019,0.022,0.029c0.027,0.033,0.053,0.068,0.078,0.103
					c0.022,0.03,0.045,0.059,0.065,0.089c0.021,0.032,0.041,0.066,0.061,0.099c0.02,0.035,0.042,0.068,0.061,0.104
					c0.016,0.031,0.031,0.064,0.046,0.097c0.018,0.038,0.037,0.075,0.053,0.113c0.014,0.033,0.025,0.068,0.038,0.103
					c0.013,0.038,0.028,0.076,0.04,0.114c0.012,0.038,0.021,0.076,0.03,0.115c0.009,0.036,0.019,0.072,0.026,0.108
					c0.008,0.04,0.013,0.081,0.019,0.122c0.006,0.036,0.011,0.072,0.016,0.108c0.004,0.039,0.005,0.079,0.007,0.118
					c0.002,0.039,0.005,0.079,0.004,0.118c0,0.036-0.002,0.072-0.003,0.109c-0.002,0.043-0.004,0.087-0.008,0.13
					c-0.001,0.012-0.001,0.024-0.002,0.036c-0.182,1.605-0.657,3.179-1.42,4.637c-0.763,1.457-1.815,2.797-3.139,3.922
					c0,0-0.002,0.001-0.002,0.002c0,0.001-0.001,0.001-0.001,0.001c-1.036,0.88-2.175,1.577-3.369,2.086
					c-1.195,0.51-2.444,0.833-3.706,0.973c-2.523,0.279-5.094-0.17-7.392-1.325c-1.532-0.77-2.94-1.857-4.114-3.238
					c-0.881-1.036-1.578-2.176-2.087-3.37c-0.509-1.195-0.832-2.445-0.972-3.706c-0.28-2.522,0.169-5.094,1.325-7.392
					c0.769-1.531,1.855-2.939,3.236-4.112c0.001-0.001,0.002-0.001,0.002-0.002c0.001-0.001,0.001-0.001,0.001-0.001
					c1.347-1.145,2.867-1.977,4.458-2.494c1.591-0.517,3.251-0.72,4.891-0.619c0.007,0,0.014,0.001,0.021,0.002
					c0.047,0.003,0.092,0.01,0.138,0.016c0.034,0.004,0.067,0.007,0.1,0.013c0.04,0.006,0.079,0.017,0.119,0.025
					c0.037,0.008,0.075,0.015,0.112,0.025c0.033,0.01,0.066,0.022,0.099,0.033c0.04,0.013,0.082,0.025,0.122,0.04
					c0.033,0.013,0.065,0.028,0.098,0.043c0.038,0.017,0.077,0.032,0.113,0.05c0.038,0.019,0.075,0.042,0.112,0.063
					c0.03,0.017,0.06,0.032,0.089,0.05c0.037,0.023,0.072,0.049,0.108,0.075c0.028,0.02,0.056,0.038,0.083,0.058
					c0.03,0.024,0.06,0.05,0.088,0.076c0.031,0.026,0.062,0.051,0.091,0.079c0.025,0.023,0.048,0.048,0.072,0.073
					c0.032,0.032,0.063,0.065,0.094,0.099c0.005,0.005,0.01,0.01,0.015,0.016c0.018,0.021,0.033,0.043,0.049,0.064
					c0.028,0.035,0.055,0.07,0.081,0.106c0.022,0.031,0.041,0.063,0.061,0.094c0.021,0.034,0.043,0.068,0.063,0.103
					c0.02,0.035,0.038,0.07,0.055,0.105c0.017,0.034,0.035,0.068,0.05,0.103c0.016,0.036,0.03,0.073,0.045,0.11
					c0.014,0.036,0.028,0.072,0.04,0.108c0.012,0.037,0.022,0.074,0.033,0.111c0.011,0.038,0.021,0.076,0.03,0.114
					c0.008,0.038,0.015,0.076,0.021,0.114c0.007,0.038,0.014,0.076,0.019,0.116c0.005,0.04,0.008,0.081,0.011,0.122
					c0.003,0.036,0.006,0.073,0.007,0.11c0.002,0.045,0,0.091-0.001,0.136c-0.001,0.026,0.001,0.053-0.001,0.079
					c0,0.007-0.002,0.014-0.002,0.021c-0.004,0.051-0.01,0.101-0.018,0.151c-0.004,0.03-0.007,0.06-0.011,0.089
					c-0.009,0.048-0.02,0.096-0.032,0.143c-0.007,0.03-0.012,0.061-0.02,0.09c-0.018,0.067-0.041,0.133-0.065,0.197
					c-0.014,0.037-0.03,0.073-0.046,0.109c-0.019,0.044-0.036,0.088-0.059,0.13c-0.013,0.026-0.029,0.05-0.043,0.076
					c-0.024,0.044-0.048,0.088-0.075,0.131c-0.015,0.023-0.032,0.045-0.048,0.068c-0.029,0.042-0.058,0.085-0.089,0.125
					c-0.021,0.026-0.044,0.051-0.066,0.076c-0.03,0.034-0.058,0.069-0.09,0.102c-0.053,0.055-0.109,0.107-0.167,0.157
					c-0.003,0.002-0.004,0.005-0.007,0.006v0c-0.059,0.05-0.122,0.098-0.185,0.142c-0.027,0.018-0.053,0.033-0.08,0.05
					c-0.038,0.025-0.076,0.05-0.116,0.072c-0.033,0.018-0.066,0.034-0.099,0.05c-0.036,0.018-0.071,0.036-0.108,0.053
					c-0.035,0.015-0.07,0.028-0.104,0.041c-0.037,0.015-0.074,0.029-0.112,0.042c-0.035,0.011-0.07,0.02-0.105,0.03
					c-0.04,0.011-0.078,0.022-0.118,0.031c-0.036,0.008-0.072,0.014-0.107,0.02c-0.04,0.007-0.079,0.015-0.12,0.019
					c-0.039,0.005-0.076,0.007-0.115,0.01c-0.039,0.003-0.076,0.006-0.115,0.007c-0.043,0.001-0.086,0-0.128-0.001
					c-0.028-0.001-0.055,0.001-0.083-0.001c-1.048-0.065-2.108,0.066-3.12,0.395c-1.012,0.329-1.974,0.855-2.84,1.591
					c-0.667,0.567-1.219,1.21-1.661,1.907c-0.441,0.697-0.772,1.448-0.99,2.229c-0.436,1.56-0.415,3.234,0.075,4.793
					c0.327,1.04,0.861,2.03,1.616,2.919c0.568,0.667,1.211,1.218,1.907,1.66c0.697,0.441,1.448,0.772,2.229,0.99
					c1.56,0.435,3.233,0.415,4.793-0.075c1.039-0.327,2.03-0.86,2.919-1.616c0.852-0.725,1.517-1.573,2.002-2.5
					c0.485-0.926,0.788-1.931,0.905-2.957c0.003-0.025,0.008-0.049,0.012-0.074c0.006-0.039,0.012-0.079,0.019-0.118
					c0.008-0.039,0.018-0.076,0.027-0.114c0.009-0.036,0.018-0.072,0.028-0.107c0.011-0.039,0.025-0.078,0.039-0.116
					c0.012-0.033,0.023-0.066,0.036-0.099c0.015-0.039,0.032-0.076,0.05-0.114c0.015-0.032,0.029-0.063,0.045-0.094
					c0.019-0.036,0.04-0.072,0.061-0.107c0.018-0.031,0.035-0.061,0.055-0.091c0.023-0.035,0.048-0.069,0.073-0.103
					c0.02-0.028,0.04-0.056,0.061-0.083c0.03-0.038,0.061-0.073,0.094-0.108c0.019-0.022,0.037-0.044,0.057-0.065
					c0.054-0.055,0.11-0.109,0.169-0.159v0v0c0.004-0.002,0.007-0.004,0.01-0.007c0.058-0.049,0.118-0.096,0.181-0.139
					c0.057-0.04,0.116-0.075,0.176-0.109c0.008-0.006,0.017-0.012,0.026-0.017c0.141-0.078,0.289-0.141,0.439-0.188
					c0.016-0.005,0.032-0.008,0.048-0.013c0.06-0.017,0.12-0.034,0.18-0.046c0.034-0.007,0.068-0.011,0.103-0.017
					c0.044-0.007,0.088-0.015,0.132-0.02c0.035-0.003,0.07-0.005,0.106-0.007c0.046-0.002,0.09-0.006,0.135-0.006
					c0.033,0,0.067,0.002,0.101,0.003c0.049,0.002,0.097,0.004,0.145,0.009c0.011,0.001,0.023,0.001,0.035,0.002
					c0.023,0.003,0.046,0.008,0.068,0.011c0.043,0.007,0.086,0.013,0.13,0.021c0.036,0.007,0.072,0.016,0.108,0.025
					c0.039,0.01,0.078,0.02,0.117,0.032c0.037,0.011,0.074,0.024,0.11,0.037c0.036,0.013,0.073,0.027,0.109,0.041
					c0.036,0.015,0.071,0.031,0.107,0.047c0.035,0.016,0.069,0.034,0.104,0.052c0.035,0.019,0.068,0.037,0.101,0.058
					c0.033,0.019,0.067,0.04,0.1,0.062c0.032,0.021,0.064,0.044,0.094,0.066c0.031,0.023,0.062,0.047,0.092,0.072
					c0.032,0.026,0.062,0.052,0.092,0.079c0.027,0.025,0.054,0.05,0.081,0.077c0.03,0.031,0.06,0.063,0.089,0.095
					C186.885,156.814,186.903,156.83,186.918,156.848z"/>
				<path style="fill:#774620;" d="M218.323,133.56c0.002,0.005,0.004,0.011,0.006,0.015c2.787,6.904-0.528,14.799-7.468,17.61
					l-0.001-0.001c-0.001,0.001-0.001,0.001-0.003,0.001c0,0,0,0,0,0.001c-6.942,2.811-14.827-0.554-17.625-7.465
					c-2.786-6.876,0.489-14.709,7.319-17.566l0.001-0.001l0.14-0.058c0.001,0,0.005-0.002,0.006-0.002
					C207.619,123.291,215.517,126.628,218.323,133.56z M213.894,135.353c-1.81-4.468-6.902-6.651-11.404-4.829
					c-4.476,1.813-6.649,6.909-4.83,11.404c1.367,3.373,4.587,5.421,7.988,5.472c1.136,0.017,2.289-0.186,3.417-0.642
					C213.54,144.943,215.713,139.847,213.894,135.353z"/>
				<path style="fill:#774620;" d="M250.286,118.887c0.108,1.315-0.87,2.468-2.185,2.576c-0.123,0.01-0.242,0.007-0.36-0.001
					l0.005,0.057l-11.427,0.937l0.459,5.595l9.403-0.771c1.315-0.108,2.468,0.871,2.576,2.186c0.107,1.315-0.871,2.468-2.186,2.576
					l-9.404,0.771l0.654,7.975c0.107,1.315-0.871,2.468-2.186,2.576c-1.315,0.107-2.468-0.871-2.576-2.185l-1.701-20.741l0.001,0
					c-0.045-0.646,0.17-1.253,0.561-1.713c0.005-0.006,0.01-0.011,0.015-0.016c0.059-0.068,0.123-0.133,0.19-0.194
					c0.378-0.349,0.869-0.579,1.421-0.625l13.808-1.132l-0.001,0.002c0.116-0.027,0.234-0.049,0.356-0.059
					C249.025,116.594,250.178,117.573,250.286,118.887z"/>
				<path style="fill:#774620;" d="M285.608,123.518c-0.249,1.295-1.502,2.142-2.797,1.893c-0.121-0.023-0.235-0.058-0.346-0.097
					l-0.01,0.057l-11.256-2.17l-1.062,5.511l9.262,1.785c1.295,0.25,2.143,1.502,1.894,2.797c-0.25,1.295-1.503,2.143-2.798,1.893
					l-9.263-1.786l-1.514,7.856c-0.25,1.295-1.502,2.142-2.797,1.892c-1.295-0.249-2.143-1.501-1.893-2.797l3.937-20.429
					l0.002,0.001c0.129-0.635,0.5-1.161,1-1.499c0.006-0.004,0.013-0.007,0.019-0.012c0.075-0.05,0.155-0.094,0.235-0.136
					c0.458-0.234,0.993-0.324,1.536-0.22l13.601,2.621v0.002c0.118,0.005,0.237,0.015,0.357,0.039
					C285.01,120.97,285.858,122.222,285.608,123.518z"/>
				<path style="fill:#774620;" d="M308.517,155.85c-0.591,1.18-2.026,1.657-3.205,1.067l-12.389-6.202
					c-0.398-0.199-0.713-0.495-0.938-0.844c-0.44-0.686-0.521-1.579-0.129-2.361l9.303-18.584c0.002-0.005,0.005-0.008,0.007-0.012
					c0.003-0.005,0.004-0.009,0.006-0.013c0.59-1.18,2.025-1.657,3.205-1.067c0.105,0.053,0.204,0.115,0.297,0.18l12.079,6.047
					c1.179,0.59,1.657,2.026,1.066,3.205c-0.59,1.18-2.025,1.657-3.206,1.067l-10.253-5.132l-2.512,5.02l8.437,4.224
					c1.179,0.59,1.657,2.026,1.067,3.205c-0.591,1.18-2.026,1.658-3.205,1.067l-8.437-4.224l-2.513,5.02l10.253,5.133
					C308.63,153.235,309.108,154.67,308.517,155.85z"/>
				<path style="fill:#774620;" d="M331.639,174.686c-0.882,0.981-2.393,1.06-3.373,0.177l-10.297-9.268
					c-0.331-0.298-0.556-0.667-0.68-1.063c-0.243-0.778-0.083-1.661,0.501-2.311l13.903-15.446c0.003-0.003,0.006-0.006,0.01-0.01
					c0.003-0.004,0.005-0.007,0.008-0.011c0.883-0.98,2.393-1.06,3.374-0.177c0.087,0.079,0.165,0.165,0.238,0.253l10.039,9.036
					c0.981,0.883,1.06,2.393,0.178,3.374c-0.883,0.981-2.393,1.06-3.374,0.177l-8.521-7.671l-3.755,4.172l7.012,6.312
					c0,0,0,0,0.001,0c0.98,0.882,1.06,2.392,0.177,3.373c-0.883,0.98-2.393,1.06-3.374,0.177l-7.012-6.312l-3.755,4.172l8.521,7.67
					C332.443,172.195,332.522,173.706,331.639,174.686z"/>
			</g>
			<g>
				<path style="fill:#774620;" d="M250.993,216.477c-12.193,0-22.084,9.89-22.084,22.09c0,12.193,9.89,22.083,22.084,22.083
					c12.2,0,22.09-9.89,22.09-22.083C273.083,226.367,263.193,216.477,250.993,216.477z M250.993,233.31
					c-4.186,0-7.587-3.401-7.587-7.587c0-4.193,3.401-7.587,7.587-7.587c4.193,0,7.587,3.394,7.587,7.587
					C258.579,229.91,255.186,233.31,250.993,233.31z"/>
				<path style="fill:#774620;" d="M189.545,254.902l-6.478-6.566c-0.924-0.937-0.383-2.526,0.922-2.7
					c2.638-0.351,6.341-0.85,8.768-1.207c1.152-0.17,2.087,0.914,1.756,2.031l-2.304,7.776
					C191.864,255.399,190.397,255.766,189.545,254.902z"/>
				<path style="fill:#774620;" d="M311.758,254.902l6.478-6.566c0.924-0.937,0.383-2.526-0.922-2.7
					c-2.638-0.351-6.341-0.85-8.768-1.207c-1.152-0.17-2.087,0.914-1.756,2.031l2.304,7.776
					C309.439,255.399,310.905,255.766,311.758,254.902z"/>
				<path style="fill:#774620;" d="M341.008,188.809c-2.274,3.921-4.927,7.098-7.566,9.638c2.486,1.795,4.231,4.414,4.809,7.674
					c0.201,1.134-1.36,1.587-1.735,0.478c-0.871-2.574-2.339-5.056-4.265-7.05c-2.549,2.282-5.024,3.98-7.072,5.191
					c2.587,1.461,4.73,3.64,5.939,6.421c0.304,0.7-0.59,1.609-1.164,0.898c-1.922-2.384-3.961-4.585-6.33-6.443
					c-1.465,0.783-2.579,1.26-3.137,1.48c-11.001-12.667-25.409-22.293-41.802-27.455c-5.62,5.364-12.463,3.604-13.325,2.811
					c5.02,0.42,9.88-1.03,12.397-4.898c5.302-8.149-3.299-15.128-3.299-15.128c0.846,11.068-16.84,12.785-16.84,12.785
					s9.297-8.414-1.56-17.227c1.788,13.961-26.926,20.023-26.926,20.023h0.027c-18.812,4.572-35.361,14.937-47.656,29.088
					l-0.006,0.006l0.004-0.007c-0.557-0.22-1.672-0.698-3.138-1.48c-2.369,1.858-4.408,4.059-6.33,6.443
					c-0.574,0.711-1.468-0.198-1.164-0.898c1.208-2.78,3.351-4.96,5.939-6.421c-2.048-1.211-4.523-2.909-7.072-5.191
					c-1.925,1.994-3.394,4.476-4.265,7.05c-0.375,1.108-1.936,0.655-1.735-0.478c0.578-3.26,2.323-5.879,4.809-7.674
					c-2.639-2.54-5.292-5.717-7.566-9.638c-0.881-1.519-3.133-1.294-3.72,0.361c-5.165,14.567-4.087,32.467,8.836,42.703
					l0.019-0.031c-0.003,0.007-0.006,0.014-0.009,0.021l-0.007,0.007c-4.586,10.933-7.119,22.937-7.119,35.537h18.127
					c0-5.413,0.569-10.723,1.707-15.899s2.832-10.209,5.087-15.079c1.023-2.202,3.631-3.163,5.832-2.141
					c2.202,1.016,3.164,3.631,2.141,5.833c-0.752,1.626-1.436,3.272-2.046,4.938c-0.955,2.608-1.741,5.27-2.344,7.966
					c-1.064,4.674-1.592,9.484-1.592,14.381h39.466c-4.234-5.467-6.747-12.322-6.747-19.773c0-17.884,14.497-32.38,32.387-32.38
					c17.877,0,32.373,14.497,32.373,32.38c0,7.452-2.513,14.307-6.74,19.773h39.459c0-5.094-0.576-10.093-1.721-14.944
					c-0.576-2.473-1.301-4.911-2.174-7.309c-0.623-1.7-1.314-3.38-2.08-5.033c-1.023-2.202-0.068-4.816,2.134-5.833
					c2.202-1.023,4.816-0.061,5.833,2.141c4.511,9.734,6.794,20.153,6.794,30.978h18.127c0-12.592-2.533-24.602-7.112-35.534
					c12.922-10.236,14-28.136,8.835-42.702C344.141,187.515,341.889,187.29,341.008,188.809z"/>
			</g>
			<g>
				<g>
					<path style="fill:#774620;" d="M133.105,267.241c-3.083,0-5.59-2.508-5.59-5.59c0-3.083,2.508-5.59,5.59-5.59
						s5.59,2.508,5.59,5.59C138.696,264.733,136.188,267.241,133.105,267.241z"/>
				</g>
				<g>
					<path style="fill:#774620;" d="M368.883,267.241c-3.083,0-5.59-2.508-5.59-5.59c0-3.083,2.508-5.59,5.59-5.59
						c3.083,0,5.59,2.508,5.59,5.59C374.473,264.733,371.965,267.241,368.883,267.241z"/>
				</g>
			</g>
		</g>
		<path id="SVGID_x5F_1_x5F_" style="fill:none;" d="M434,250c0-101.62-82.38-184-184-184S66,148.38,66,250s82.38,184,184,184
			S434,351.62,434,250z"/>
		<text>		<textPath  xlink:href="#SVGID_x5F_1_x5F_" startOffset="34.318%">
<tspan  style="fill:#8E613F; font-family:'Futura-Medium'; font-size:18.2298px; letter-spacing:100;">YOUR TAGLINE GOES HERE</tspan>		</textPath>
</text>
	</g>
</g>
</svg>
