<?xml version="1.0" standalone="no"?>
<!DOCTYPE svg PUBLIC "-//W3C//DTD SVG 20010904//EN"
 "http://www.w3.org/TR/2001/REC-SVG-20010904/DTD/svg10.dtd">
<svg version="1.0" xmlns="http://www.w3.org/2000/svg"
 width="500.000000pt" height="500.000000pt" viewBox="0 0 500.000000 500.000000"
 preserveAspectRatio="xMidYMid meet">

<g transform="translate(0.000000,500.000000) scale(0.100000,-0.100000)"
fill="#000000" stroke="none">
<path d="M3880 4914 c-326 -70 -679 -280 -900 -535 -35 -41 -71 -74 -79 -73
-9 0 -61 9 -116 19 -77 15 -148 19 -305 19 -219 0 -311 -11 -500 -61 -149 -39
-139 -40 -185 18 -60 78 -269 286 -377 375 -118 98 -191 128 -308 127 -94 0
-160 -21 -240 -75 -150 -100 -211 -282 -196 -593 11 -253 38 -418 97 -610 l31
-101 -56 -102 c-73 -134 -154 -311 -201 -442 -44 -122 -47 -127 -85 -135 -16
-4 -56 -24 -88 -45 -242 -156 -339 -479 -235 -787 105 -316 347 -559 723 -726
109 -48 345 -130 413 -142 38 -7 38 -8 32 -47 -9 -52 11 -130 44 -172 43 -54
56 -133 42 -263 -6 -59 -11 -127 -11 -150 l0 -41 132 -65 c322 -158 662 -237
1021 -237 270 0 505 36 747 116 163 54 418 178 555 270 108 72 277 208 338
271 l38 40 -75 149 c-41 82 -108 200 -150 263 l-76 113 31 39 c17 21 34 39 39
39 18 0 207 190 260 261 115 154 203 362 236 553 22 132 15 384 -14 501 -20
79 -20 81 -2 170 130 642 143 1242 34 1622 -74 259 -219 411 -424 443 -82 13
-110 12 -190 -6z m272 -106 c81 -37 124 -73 167 -137 71 -106 119 -260 147
-475 23 -165 22 -511 0 -721 -21 -202 -77 -549 -86 -538 -4 4 -15 31 -25 58
-10 28 -40 98 -68 157 l-50 108 26 78 c35 106 49 221 37 319 -12 97 -23 137
-66 240 l-35 82 20 66 c25 81 27 190 6 263 -30 100 -125 172 -228 172 -109 0
-230 -91 -333 -250 -40 -63 -126 -220 -136 -250 -4 -12 -10 -12 -49 3 -34 13
-40 13 -24 2 11 -9 64 -48 118 -87 241 -177 486 -482 642 -803 176 -360 226
-631 170 -924 -57 -295 -241 -580 -485 -750 -310 -217 -847 -361 -1490 -401
-379 -24 -884 35 -1245 145 -304 92 -517 208 -690 376 -144 139 -233 287 -276
459 -18 70 -21 103 -16 190 8 157 47 256 143 359 106 115 250 164 484 164 194
0 318 -27 464 -99 68 -33 69 -33 45 -7 -45 49 -170 122 -252 148 -139 44 -305
55 -438 28 l-29 -6 29 79 c61 165 161 377 239 504 215 352 595 659 977 790
287 98 591 131 868 95 119 -15 310 -61 399 -95 l51 -19 -34 35 c-19 19 -55 49
-81 66 -59 37 -59 36 65 161 201 201 431 338 707 421 117 36 247 33 332 -6z
m-2933 -103 c58 -20 111 -59 226 -166 116 -108 306 -310 303 -321 -3 -7 -244
-128 -256 -128 -4 0 -31 39 -61 87 -68 108 -164 211 -231 247 -178 97 -392
-30 -378 -224 4 -57 33 -127 70 -166 19 -22 19 -22 -3 -93 -29 -96 -24 -233
11 -302 l23 -47 -28 -37 c-33 -43 -34 -42 -64 69 -47 170 -63 301 -68 531 -4
195 -2 228 15 292 35 129 100 208 207 252 61 24 174 28 234 6z m2835 -319 c48
-20 84 -73 97 -141 13 -71 5 -130 -27 -211 l-24 -61 39 -76 c82 -162 103 -375
50 -514 -9 -25 -11 -24 -72 65 -114 166 -266 318 -426 423 -41 26 -78 50 -84
52 -14 4 82 192 143 281 113 163 210 221 304 182z m-2899 -34 c41 -21 134
-116 182 -187 42 -63 77 -125 71 -129 -127 -86 -251 -188 -345 -284 -79 -82
-82 -83 -93 -61 -34 62 -19 202 31 301 l19 37 -49 49 c-74 74 -87 144 -41 219
45 75 140 98 225 55z m2760 -3219 c32 -48 89 -147 127 -219 l68 -131 -65 -62
c-319 -298 -808 -514 -1274 -561 -309 -31 -661 11 -957 113 -102 36 -228 88
-302 126 l-42 21 0 60 c0 62 12 83 29 52 6 -10 35 -36 64 -56 96 -66 172 -51
249 51 44 58 110 106 161 119 20 4 27 2 27 -8 0 -8 14 -27 31 -44 27 -26 37
-29 94 -29 l63 0 61 58 c95 91 141 107 334 119 372 21 634 89 904 234 101 54
226 141 312 215 24 21 47 37 51 34 4 -2 33 -44 65 -92z m-276 38 c-258 -201
-691 -341 -1059 -341 -172 0 -294 -45 -385 -141 -26 -27 -55 -49 -66 -49 -30
0 -59 36 -59 74 l0 34 -42 -5 c-106 -12 -201 -61 -259 -133 -90 -113 -105
-115 -188 -32 -63 63 -92 117 -112 207 -9 44 -20 67 -42 85 -22 19 -30 37 -34
72 -9 78 -11 78 129 52 306 -57 778 -77 1078 -46 386 40 735 116 974 211 86
35 96 37 65 12z"/>
<path d="M2591 3735 c-150 -34 -255 -82 -376 -172 -124 -92 -231 -226 -314
-392 -70 -138 -152 -436 -150 -548 1 -121 63 -258 154 -340 99 -90 168 -118
370 -152 308 -52 552 -34 807 59 271 99 455 323 505 617 30 177 -9 369 -108
536 -46 77 -148 190 -219 242 -68 50 -193 110 -280 135 -99 28 -298 36 -389
15z m11 -606 c199 -42 338 -231 338 -459 0 -136 -47 -249 -144 -346 -81 -81
-148 -108 -266 -108 -118 0 -185 27 -266 108 -97 97 -144 210 -144 346 0 223
133 409 325 456 65 16 93 16 157 3z"/>
<path d="M1232 3629 c-79 -31 -174 -135 -234 -253 -62 -122 -150 -388 -134
-404 16 -15 285 113 396 188 74 50 176 158 200 212 59 131 -21 269 -156 267
-27 0 -60 -4 -72 -10z"/>
<path d="M1422 3141 c-73 -25 -151 -81 -245 -176 l-79 -80 43 -13 c203 -59
402 -33 470 61 51 70 31 170 -42 209 -42 23 -79 22 -147 -1z"/>
<path d="M582 2575 c-186 -41 -294 -147 -296 -290 -1 -85 24 -145 85 -199 127
-114 316 -125 467 -26 104 67 171 157 193 259 21 98 -36 211 -126 252 -49 23
-226 25 -323 4z"/>
</g>
</svg>
