<?xml version="1.0" encoding="utf-8"?>
<!-- Generator: Adobe Illustrator 27.5.0, SVG Export Plug-In . SVG Version: 6.00 Build 0)  -->
<svg version="1.1" xmlns="http://www.w3.org/2000/svg" xmlns:xlink="http://www.w3.org/1999/xlink" x="0px" y="0px"
	 viewBox="0 0 500 500" style="enable-background:new 0 0 500 500;" xml:space="preserve">
<g id="BACKGROUND">
	<rect style="fill:#FFFFFF;" width="500" height="500"/>
</g>
<g id="OBJECTS">
	<g>
		
			<ellipse transform="matrix(0.7071 -0.7071 0.7071 0.7071 -78.7365 241.909)" style="fill:#9CD4FC;" cx="252.642" cy="215.998" rx="111.796" ry="111.796"/>
		<g>
			<defs>
				<path id="SVGID_1_" d="M348.948,159.204c1.249-18.278,0.151-36.573-6.049-50.071c-3.788-8.248-12.186-13.577-21.393-13.578
					c-1.792,0-3.589,0.203-5.341,0.604c-12.138,2.778-21.885,8.031-29.262,13.398c-10.798-3.473-22.309-5.356-34.261-5.356
					c-16.534,0-32.228,3.593-46.349,10.035c-2.885-2.813-6.031-5.672-9.365-8.379c-3.628-2.945-8.001-4.502-12.647-4.502
					c-8.693,0-16.408,5.504-19.197,13.695c-0.063,0.184-0.124,0.37-0.185,0.558c-1.065,3.293-1.65,6.95-1.739,10.868
					c-0.098,4.304-0.005,12.043,1.295,20.807c-13.551,17.366-22.081,38.837-23.418,62.236c-1.104,1.605-2.068,3.356-2.879,5.253
					c-3.103,7.258-3.435,15.746-0.936,23.898c2.47,8.057,6.754,14.757,12.203,20.338c16.851,40.393,56.716,68.786,103.217,68.786
					c61.743,0,111.796-50.053,111.796-111.796C364.438,195.262,358.786,175.85,348.948,159.204z M344.388,131.317
					c0.561,4.646,0.877,9.928,0.851,15.93c-0.008,1.892-0.054,3.862-0.133,5.9l0,0c0.079-2.038,0.125-4.008,0.133-5.9
					C345.265,141.245,344.949,135.962,344.388,131.317c-0.281-2.323-0.622-4.486-1.013-6.501
					C343.765,126.83,344.107,128.994,344.388,131.317z M321.506,99.759c0.118,0,0.234,0.01,0.352,0.012
					c-0.446-0.008-0.893-0.007-1.342,0.015C320.847,99.77,321.177,99.759,321.506,99.759z M184.282,105.559
					c0.015,0,0.03,0.002,0.044,0.002c-0.074,0-0.148,0.004-0.223,0.005C184.163,105.565,184.222,105.559,184.282,105.559z"/>
			</defs>
			<clipPath id="SVGID_00000031204170692947638900000001310389412894461608_">
				<use xlink:href="#SVGID_1_"  style="overflow:visible;"/>
			</clipPath>
			<g style="clip-path:url(#SVGID_00000031204170692947638900000001310389412894461608_);">
				<g>
					<path style="fill:#FFFFFF;" d="M332.21,294.52c-20.27,20.54-48.43,33.27-79.57,33.27c-20.31,0-39.35-5.41-55.77-14.88
						c0.91-14.32,3.35-35.07,9.91-49.77l104.6-1.18C311.38,261.96,323.05,272.5,332.21,294.52z"/>
					<g>
						<path style="fill:#582AB1;" d="M309.697,266.183c4.026,4.121,11.415,13.633,17.518,27.363
							c-20.139,19.395-46.509,30.04-74.575,30.04c-17.995,0-35.706-4.502-51.395-13.043c0.968-13.205,3.205-30.298,8.339-43.231
							L309.697,266.183 M311.38,261.96l-104.6,1.18c-6.56,14.7-9,35.45-9.91,49.77c16.42,9.47,35.46,14.88,55.77,14.88
							c31.14,0,59.3-12.73,79.57-33.27C323.05,272.5,311.38,261.96,311.38,261.96L311.38,261.96z"/>
					</g>
				</g>
				<g>
					<path style="fill:#FEEFF5;" d="M317.287,263.145c0,0-2.002,2.738-6.102,6.516c0,0.012,0,0.012-0.012,0.011
						c-9.05,8.295-28.318,21.554-59.008,21.57c-2.09,0.007-4.184,0.177-6.203,0.743c-6.034,1.663-9.452,4.943-11.165,7.164
						c-1.214,1.568-3.739,1.253-4.471-0.583c-0.665-1.696-0.32-3.373-0.32-3.373c-9.864,0.291-14.362,5.513-16.286,9.019
						c-0.95,1.736-3.213,2.285-4.817,1.129c-8.021-5.712-8.069-14.933-8.069-14.933c-4.778-2.191-3.472-8.634-1.029-14.452
						c2.382-5.656,5.833-10.724,5.833-10.724l51.174,3.596L317.287,263.145z"/>
					<path style="fill:#FFFFFF;" d="M317.287,263.145c0,0-2.002,2.738-6.102,6.516c0,0.012,0,0.012-0.012,0.011
						c-10.532,7.443-29.764,16.94-57.558,14.828c-2.087-0.155-4.189-0.148-6.24,0.255c-6.153,1.197-9.809,4.205-11.695,6.295
						c-1.328,1.473-3.826,0.962-4.406-0.93c-0.537-1.728-0.064-3.38-0.064-3.38c-9.861-0.464-14.748,4.391-16.924,7.741
						c-1.076,1.663-3.382,2.027-4.902,0.756c-7.557-6.308-6.885-15.503-6.885-15.503c-1.574-0.877-2.409-2.193-2.693-3.778
						c2.382-5.656,5.833-10.724,5.833-10.724l51.174,3.596L317.287,263.145z"/>
					<g>
						<g>
							<path style="fill:#582AB1;" d="M317.29,263.14c0,0-20.472,28.077-65.122,28.107c-2.09,0.001-4.187,0.177-6.203,0.733
								c-6.035,1.664-9.455,4.946-11.171,7.173c-0.524,0.681-1.299,1.006-2.067,1.006c-1,0-1.989-0.552-2.401-1.592
								c-0.671-1.693-0.324-3.372-0.324-3.372c-9.865,0.291-14.363,5.511-16.279,9.017c-0.609,1.115-1.758,1.737-2.929,1.737
								c-0.655,0-1.317-0.195-1.896-0.607c-8.019-5.712-8.058-14.933-8.058-14.933c-9.436-4.308,4.798-25.179,4.798-25.179
								l51.179,3.594L317.29,263.14 M326.181,258.082l-9.284,0.873l-60.13,5.653l-50.835-3.569l-2.408-0.169l-1.36,1.994
								c-1.82,2.669-10.775,16.426-8.323,25.218c0.54,1.935,1.567,3.545,3.017,4.756c0.564,3.715,2.558,10.913,9.601,15.929
								c1.274,0.907,2.773,1.387,4.335,1.387c2.759,0,5.295-1.504,6.618-3.926c1.331-2.436,3.919-5.284,8.904-6.38
								c0.032,0.089,0.066,0.178,0.101,0.268c1.022,2.58,3.498,4.247,6.309,4.247c2.135,0,4.103-0.964,5.397-2.645
								c1.436-1.863,4.155-4.362,8.958-5.686c1.415-0.39,3.079-0.58,5.089-0.581c24.102-0.016,41.368-8.032,51.609-14.754
								c11.21-7.358,16.68-14.768,16.907-15.08L326.181,258.082L326.181,258.082z"/>
						</g>
					</g>
				</g>
				<g>
					<g>
						<path style="fill:#FFFFFF;" d="M219.788,135.741c0,0-11.115-14.935-25.509-26.62c-8.62-6.997-21.636-3.225-25.215,7.284
							c-0.055,0.163-0.11,0.328-0.164,0.494c-1.01,3.123-1.462,6.39-1.537,9.671c-0.192,8.457,0.342,28.428,8.474,44.067
							L219.788,135.741z"/>
						<g>
							<path style="fill:#582AB1;" d="M184.282,105.559c3.476,0,7.003,1.131,9.997,3.562c14.394,11.685,25.509,26.62,25.509,26.62
								l-43.952,34.897c-8.132-15.638-8.666-35.61-8.474-44.067c0.075-3.281,0.527-6.549,1.537-9.671
								c0.054-0.167,0.109-0.331,0.164-0.494C171.399,109.548,177.753,105.559,184.282,105.559 M184.282,101.355
								c-8.693,0-16.408,5.504-19.197,13.695c-0.063,0.185-0.124,0.37-0.185,0.558c-1.065,3.293-1.65,6.95-1.739,10.867
								c-0.189,8.324,0.303,29.479,8.947,46.102l2.352,4.522l3.992-3.17l43.952-34.897l3.191-2.534l-2.433-3.268
								c-0.467-0.627-11.598-15.494-26.232-27.374C193.3,102.912,188.927,101.355,184.282,101.355L184.282,101.355z"/>
						</g>
						<g>
							<path style="fill:#FFBDD3;" d="M199.742,140.461c-6.389,3.709-12.376,9.751-16.064,13.873
								c-2.332,2.614-3.742,4.458-3.742,4.458c-7.538-9.328,0.228-20.348,0.228-20.348c-2.245-1.388-3.731-3.059-4.697-4.783
								c-3.677-6.584,2.918-13.374,9.339-11.183c0.683,0.217,1.367,0.553,2.028,0.998
								C194.796,128.801,199.742,140.461,199.742,140.461z"/>
							<path style="fill:#FFA5C3;" d="M199.742,140.461c-6.389,3.709-12.376,9.751-16.064,13.873
								c-3.178-8.211,2.549-16.356,2.549-16.356c-2.234-1.399-3.72-3.059-4.686-4.783c-2.451-4.393-0.325-8.883,3.265-10.716
								c0.683,0.217,1.367,0.553,2.028,0.998C194.796,128.801,199.742,140.461,199.742,140.461z"/>
							<g>
								<path style="fill:#582AB1;" d="M182.302,122.059c0.822,0,1.664,0.133,2.504,0.419c0.683,0.217,1.367,0.553,2.028,0.998
									c7.961,5.326,12.907,16.986,12.907,16.986c-6.389,3.709-12.376,9.751-16.064,13.873c-2.332,2.614-3.742,4.458-3.742,4.458
									c-7.538-9.328,0.228-20.348,0.228-20.348c-2.245-1.388-3.731-3.059-4.697-4.783
									C172.271,127.938,176.837,122.059,182.302,122.059 M182.303,117.855L182.303,117.855c-4.28,0-8.298,2.317-10.486,6.045
									c-2.154,3.671-2.161,7.975-0.02,11.81c0.787,1.406,1.772,2.683,2.946,3.823c-2.567,5.619-4.126,14.416,1.923,21.901
									l3.361,4.159l3.248-4.247c0.012-0.016,1.358-1.768,3.54-4.213c3.654-4.084,9.234-9.666,15.037-13.036l3.208-1.862
									l-1.448-3.415c-0.222-0.523-5.538-12.883-14.44-18.838c-0.972-0.653-2-1.159-3.049-1.496
									C184.882,118.067,183.597,117.855,182.303,117.855L182.303,117.855z"/>
							</g>
						</g>
					</g>
					<path style="fill:#FFFFFF;" d="M273.189,128.877c0,0,14.799-21.955,43.914-28.619c8.915-2.041,18.159,2.319,21.976,10.63
						c5.77,12.562,10.121,37.235,0.517,84.676L273.189,128.877z"/>
					<g>
						<path style="fill:#FFBDD3;" d="M324.76,181.113l-4.762-4.783l-21.422-21.508c0,0,8.146-24.99,18.493-32.073
							c0.477-0.336,0.965-0.618,1.454-0.868c4.23-2.147,9.252,0.282,10.423,4.881c0.889,3.482,1.182,8.829-2.473,14.513
							C326.474,141.274,341.258,160.136,324.76,181.113z"/>
						<path style="fill:#FFA5C3;" d="M319.999,176.33l-21.422-21.508c0,0,8.146-24.99,18.493-32.073
							c1.66,0.976,2.961,2.603,3.493,4.664c0.889,3.471,1.182,8.818-2.484,14.513C318.079,141.925,330.411,157.631,319.999,176.33z"
							/>
						<g>
							<path style="fill:#582AB1;" d="M321.843,121.042c3.158,0,6.136,2.15,7.027,5.416c0.944,3.46,1.374,8.962-2.399,14.817
								c0,0,14.79,18.858-1.711,39.833l-26.182-26.292c0,0,9.185-28.195,20.452-33.177
								C319.951,121.232,320.905,121.043,321.843,121.042 M321.844,116.839L321.844,116.839c-1.561,0-3.079,0.322-4.513,0.956
								c-12.618,5.579-21.749,32.651-22.749,35.72l-0.797,2.446l1.815,1.823l26.181,26.292l3.349,3.363l2.934-3.73
								c9.543-12.13,9.533-23.714,7.843-31.296c-1.116-5.009-3.1-8.952-4.509-11.305c3.07-6.182,2.585-11.881,1.528-15.755
								C331.558,120.339,327.001,116.839,321.844,116.839L321.844,116.839z"/>
						</g>
					</g>
					<path style="fill:#FFFFFF;" d="M158.679,202.491c0,0,3.232-12.27,11.295-27.24c27.935-51.863,97.31-64.096,140.083-23.592
						c12.041,11.403,22.857,27.087,29.131,48.623c7.659,26.292-4.301,54.534-28.738,66.893
						c-15.536,7.858-38.115,14.119-70.891,15.181c0,0-83.781,2.512-98.319-44.919c-2.117-6.908-2.057-14.37,0.783-21.014
						C144.479,210.679,149.285,204.663,158.679,202.491z"/>
					<g>
						<path style="fill:#F25691;" d="M214.916,201.318c2.727-15.663,10.017-36.032,29.209-45.398
							c20.254-9.884,45.038-2.13,54.933,18.119c0.251,0.515,0.497,1.041,0.737,1.578c8.011,17.974,1.264,39.078-16.104,48.329
							c-11.099,5.912-27.476,9.219-51.227,3.794C220.49,225.005,212.809,213.418,214.916,201.318z"/>
						<path style="fill:#582AB1;" d="M299.12,188.53c3.697,11.76-0.584,24.699-10.384,32.177c-1.566,1.195-3.25,2.279-5.048,3.237
							c-11.099,5.92-27.478,9.226-51.222,3.796c-0.061-0.014-0.121-0.028-0.182-0.043c-9.138-2.176-14.813-11.42-12.906-20.618
							c2.505-12.079,10.6-30.99,36.505-38.707c10.596-3.155,22.198-1.76,31.349,4.462C292.217,176.216,296.816,181.2,299.12,188.53z
							"/>
						<g>
							<ellipse style="fill:#F7C560;" cx="251.941" cy="203.252" rx="19.688" ry="22.144"/>
							<path style="fill:#FBCF78;" d="M262.84,200.912c-1.481,7.453-8.788,12.468-16.321,11.201
								c-7.533-1.267-12.439-8.335-10.958-15.788c1.481-7.453,8.788-12.468,16.321-11.201
								C259.414,186.39,264.32,193.459,262.84,200.912z"/>
						</g>
					</g>
					<g>
						<path style="fill:#F25691;" d="M171.845,189.779c0,0,4.104-22.137,14.512-30.218c0,0,1.47-1.262,3.866-2.187
							c7.628-2.945,14.732,4.92,11.111,12.251C198.363,175.638,190.632,183.158,171.845,189.779z"/>
						<path style="fill:#582AB1;" d="M183.645,193.371c0,0,9.133-12.016,18.35-13.352c5.314-0.77,9.434,4.949,6.975,9.721
							C206.716,194.112,200.435,197.941,183.645,193.371z"/>
					</g>
					<g>
						<path style="fill:#582AB1;" d="M321.506,99.759c7.408,0,14.384,4.186,17.573,11.129c5.77,12.562,10.121,37.235,0.517,84.676
							l-2.91-2.923c0.897,2.463,1.735,5.007,2.503,7.642c7.659,26.292-4.301,54.534-28.738,66.893
							c-15.536,7.858-38.115,14.119-70.891,15.181c0,0-0.768,0.023-2.172,0.023c-13.247,0-83.002-2.056-96.147-44.942
							c-2.117-6.908-2.057-14.37,0.783-21.014c2.456-5.745,7.261-11.761,16.656-13.933c0,0,3.232-12.27,11.295-27.24
							c16.639-30.892,47.977-47.719,79.642-47.718c8.803,0,17.635,1.301,26.179,3.962l-2.608-2.619c0,0,14.799-21.955,43.914-28.619
							C318.57,99.922,320.046,99.759,321.506,99.759 M321.506,95.555C321.506,95.555,321.507,95.555,321.506,95.555
							c-1.792,0-3.589,0.203-5.341,0.604c-27.412,6.275-42.657,25.169-45.849,29.505c-6.757-1.551-13.692-2.335-20.699-2.335
							c-34.819-0.002-66.755,19.13-83.344,49.928c-6.208,11.526-9.618,21.434-10.969,25.8c-7.904,2.501-13.803,7.892-17.146,15.714
							c-3.103,7.258-3.435,15.745-0.936,23.898c13.979,45.604,85.893,47.914,100.167,47.914c1.451,0,2.264-0.024,2.298-0.025
							c29.607-0.959,54.05-6.218,72.662-15.631c26.16-13.231,39.146-43.436,30.877-71.82c-0.011-0.038-0.022-0.076-0.033-0.115
							l0.525-2.595c5.479-27.068,9.786-64.181-0.818-87.265C339.111,100.885,330.713,95.556,321.506,95.555L321.506,95.555
							L321.506,95.555z"/>
					</g>
					<g>
						<path style="fill:#582AB1;" d="M151.754,210.411c3.989-2.098,9.836-3.681,18.338-3.382c6.543,0.23,11.617,6.136,10.554,12.596
							c-0.604,3.67-2.624,7.796-7.437,11.768c-6.647,5.486-16.23,6.239-23.123,1.065c-0.595-0.447-1.171-0.937-1.718-1.475
							C142.199,224.909,144.092,214.441,151.754,210.411z"/>
						<path style="fill:#6737C4;" d="M169.037,214.511c1.91,4.625-1.488,10.417-7.591,12.938c-6.103,2.521-12.598,0.815-14.509-3.81
							c-1.91-4.625,1.488-10.417,7.591-12.938C160.631,208.181,167.127,209.886,169.037,214.511z"/>
					</g>
					<path style="fill:#582AB1;" d="M158.679,202.491c0,0,20.88-5.182,37.689,6.1c0,0-11.444-15.747-37.416-10.195L158.679,202.491z
						"/>
					<g>
						<path style="fill:#FFA5C3;" d="M326.116,255.433c-4.393,4.697-9.654,8.699-15.662,11.747
							c-15.51,7.831-38.017,14.089-70.686,15.163c0.022-26.151,21.227-47.334,47.377-47.334
							C303.295,235.009,317.558,243.09,326.116,255.433z"/>
						<path style="fill:#FFB5CE;" d="M307.254,249.695c1.25,8.468-7.714,16.805-20.021,18.622
							c-12.307,1.817-23.298-3.575-24.548-12.042c-1.25-8.468,7.714-16.805,20.021-18.622
							C295.013,235.836,306.004,241.228,307.254,249.695z"/>
					</g>
					<path style="fill:#582AB1;" d="M338.249,197.21c0,0-11.22-37.892-44.331-57.706c0,0,34.408,9.204,48.42,57.706H338.249z"/>
					<path style="fill:#582AB1;" d="M270.465,130.02c0,0,6.978,1.638,11.97,3.836c0,0-4.111-4.903-10.208-7.305L270.465,130.02z"/>
				</g>
			</g>
		</g>
	</g>
</g>
<g id="TEXTS">
	<g>
		
			<text transform="matrix(1 0 0 1 117.0439 378.907)" style="fill:#582AB1; font-family:'Montserrat-Black'; font-size:45px; letter-spacing:9;">KITSUNE</text>
		
			<text transform="matrix(1 0 0 1 151.8661 400.4704)" style="fill:#F25691; font-family:'Montserrat-SemiBold'; font-size:15px; letter-spacing:2;">YOUR TAGLINE HERE</text>
	</g>
</g>
</svg>
