<?xml version="1.0" encoding="utf-8"?>
<!-- Generator: Adobe Illustrator 27.5.0, SVG Export Plug-In . SVG Version: 6.00 Build 0)  -->
<svg version="1.1" xmlns="http://www.w3.org/2000/svg" xmlns:xlink="http://www.w3.org/1999/xlink" x="0px" y="0px"
	 viewBox="0 0 500 500.001" style="enable-background:new 0 0 500 500.001;" xml:space="preserve">
<g id="BACKGROUND">
	<rect style="fill:#FFFFFF;" width="500" height="499.999"/>
</g>
<g id="OBJECTS">
	<g>
		<g>
			<path style="fill:#304B54;" d="M296.623,202.726h28.357c1.306,0,2.583,0.133,3.815,0.385c-2.489-4.547-7.314-7.632-12.862-7.632
				h-21.156c0.785,1.898,1.362,3.97,1.691,6.194C296.515,201.994,296.567,202.346,296.623,202.726z"/>
			<path style="fill:#304B54;" d="M203.379,202.726c0.055-0.372,0.105-0.721,0.152-1.042c0.322-2.22,0.907-4.297,1.715-6.205
				h-21.178c-5.549,0-10.375,3.085-12.863,7.632c1.232-0.253,2.508-0.385,3.814-0.385H203.379z"/>
			<path style="fill:#304B54;" d="M250,212.75c-23.945,0-43.425,19.481-43.425,43.427c0,23.943,19.48,43.425,43.425,43.425
				c23.946,0,43.425-19.481,43.425-43.425C293.425,232.231,273.946,212.75,250,212.75z M250,279.848
				c-13.075,0-23.672-10.597-23.672-23.671c0-13.076,10.597-23.675,23.672-23.675c13.075,0,23.675,10.599,23.675,23.675
				C273.675,269.251,263.075,279.848,250,279.848z"/>
			<path style="fill:#304B54;" d="M324.98,204.925h-30.252c-0.17-1.135-0.317-2.133-0.435-2.93
				c-1.46-9.89-8.223-16.534-16.832-16.534h-54.923c-8.631,0-15.396,6.646-16.832,16.54c-0.118,0.814-0.265,1.808-0.43,2.924H175.02
				c-9.294,0-16.854,7.561-16.854,16.854v75.907c0,9.294,7.561,16.854,16.854,16.854H324.98c9.294,0,16.854-7.561,16.854-16.854
				v-75.907C341.835,212.486,334.274,204.925,324.98,204.925z M299.289,256.177c0,8.999-2.425,17.429-6.638,24.69h35.359
				c1.215,0,2.199,0.983,2.199,2.198c0,1.215-0.984,2.197-2.199,2.197h-36.146c-0.628,0-1.192-0.266-1.593-0.688
				c-8.924,12.633-23.63,20.889-40.272,20.889c-16.644,0-31.348-8.256-40.273-20.889c-0.4,0.423-0.964,0.688-1.592,0.688H171.99
				c-1.214,0-2.199-0.982-2.199-2.197c0-1.215,0.984-2.198,2.199-2.198h35.358c-4.211-7.262-6.636-15.691-6.636-24.69
				c0-9.001,2.425-17.43,6.636-24.693H171.99c-1.214,0-2.199-0.983-2.199-2.198c0-1.215,0.984-2.198,2.199-2.198h38.229
				c8.968-12.244,23.442-20.201,39.781-20.201c16.34,0,30.813,7.957,39.782,20.201h38.229c1.215,0,2.199,0.983,2.199,2.198
				c0,1.215-0.984,2.198-2.199,2.198h-35.359C296.864,238.747,299.289,247.176,299.289,256.177z"/>
			<path style="fill:#304B54;" d="M250,243.495c-6.992,0-12.68,5.688-12.68,12.682c0,6.991,5.688,12.68,12.68,12.68
				c6.993,0,12.681-5.689,12.681-12.68C262.681,249.183,256.993,243.495,250,243.495z M255.258,254.592
				c-1.619,0-2.933-1.314-2.933-2.932c0-1.62,1.313-2.93,2.933-2.93c1.618,0,2.93,1.31,2.93,2.93
				C258.188,253.277,256.876,254.592,255.258,254.592z"/>
			<g>
				<g>
					<path style="fill:#FFFFFF;" d="M334.75,300.035c0-0.279,0.22-0.5,0.5-0.5l0,0c0.271,0,0.5,0.221,0.5,0.5l0,0
						c0,0.28-0.229,0.5-0.5,0.5l0,0C334.97,300.535,334.75,300.315,334.75,300.035z M334.75,295.035c0-0.279,0.22-0.5,0.5-0.5l0,0
						c0.271,0,0.5,0.221,0.5,0.5l0,0c0,0.28-0.229,0.5-0.5,0.5l0,0C334.97,295.535,334.75,295.315,334.75,295.035z M334.75,290.035
						c0-0.279,0.22-0.5,0.5-0.5l0,0c0.271,0,0.5,0.221,0.5,0.5l0,0c0,0.28-0.229,0.5-0.5,0.5l0,0
						C334.97,290.535,334.75,290.315,334.75,290.035z M334.75,285.035c0-0.279,0.22-0.5,0.5-0.5l0,0c0.271,0,0.5,0.221,0.5,0.5l0,0
						c0,0.271-0.229,0.5-0.5,0.5l0,0C334.97,285.535,334.75,285.306,334.75,285.035z M334.75,280.035c0-0.279,0.22-0.5,0.5-0.5l0,0
						c0.271,0,0.5,0.221,0.5,0.5l0,0c0,0.271-0.229,0.5-0.5,0.5l0,0C334.97,280.535,334.75,280.306,334.75,280.035z M334.75,275.035
						c0-0.279,0.22-0.5,0.5-0.5l0,0c0.271,0,0.5,0.221,0.5,0.5l0,0c0,0.28-0.229,0.5-0.5,0.5l0,0
						C334.97,275.535,334.75,275.315,334.75,275.035z M334.75,270.035c0-0.279,0.22-0.5,0.5-0.5l0,0c0.271,0,0.5,0.221,0.5,0.5l0,0
						c0,0.28-0.229,0.5-0.5,0.5l0,0C334.97,270.535,334.75,270.315,334.75,270.035z M334.75,265.035c0-0.279,0.22-0.5,0.5-0.5l0,0
						c0.271,0,0.5,0.221,0.5,0.5l0,0c0,0.28-0.229,0.5-0.5,0.5l0,0C334.97,265.535,334.75,265.315,334.75,265.035z M334.75,260.035
						c0-0.279,0.22-0.5,0.5-0.5l0,0c0.271,0,0.5,0.221,0.5,0.5l0,0c0,0.271-0.229,0.5-0.5,0.5l0,0
						C334.97,260.535,334.75,260.306,334.75,260.035z M334.75,255.035c0-0.279,0.22-0.5,0.5-0.5l0,0c0.271,0,0.5,0.221,0.5,0.5l0,0
						c0,0.28-0.229,0.5-0.5,0.5l0,0C334.97,255.535,334.75,255.316,334.75,255.035z M334.75,250.035c0-0.279,0.22-0.499,0.5-0.499
						l0,0c0.271,0,0.5,0.22,0.5,0.499l0,0c0,0.28-0.229,0.5-0.5,0.5l0,0C334.97,250.535,334.75,250.316,334.75,250.035z
						 M334.75,245.036c0-0.27,0.22-0.5,0.5-0.5l0,0c0.271,0,0.5,0.23,0.5,0.5l0,0c0,0.28-0.229,0.5-0.5,0.5l0,0
						C334.97,245.536,334.75,245.316,334.75,245.036z M334.75,240.036c0-0.28,0.22-0.5,0.5-0.5l0,0c0.271,0,0.5,0.22,0.5,0.5l0,0
						c0,0.28-0.229,0.5-0.5,0.5l0,0C334.97,240.536,334.75,240.316,334.75,240.036z"/>
				</g>
				<g>
					<path style="fill:#FFFFFF;" d="M329.19,273.495c0-0.279,0.22-0.5,0.5-0.5l0,0c0.27,0,0.5,0.221,0.5,0.5l0,0
						c0,0.27-0.23,0.5-0.5,0.5l0,0C329.41,273.995,329.19,273.766,329.19,273.495z M329.19,268.495c0-0.279,0.22-0.5,0.5-0.5l0,0
						c0.27,0,0.5,0.221,0.5,0.5l0,0c0,0.27-0.23,0.5-0.5,0.5l0,0C329.41,268.995,329.19,268.766,329.19,268.495z M329.19,263.495
						c0-0.279,0.22-0.5,0.5-0.5l0,0c0.27,0,0.5,0.221,0.5,0.5l0,0c0,0.27-0.23,0.5-0.5,0.5l0,0
						C329.41,263.995,329.19,263.766,329.19,263.495z M329.19,258.495c0-0.279,0.22-0.5,0.5-0.5l0,0c0.27,0,0.5,0.221,0.5,0.5l0,0
						c0,0.27-0.23,0.5-0.5,0.5l0,0C329.41,258.995,329.19,258.766,329.19,258.495z M329.19,253.495c0-0.279,0.22-0.5,0.5-0.5l0,0
						c0.27,0,0.5,0.221,0.5,0.5l0,0c0,0.28-0.23,0.5-0.5,0.5l0,0C329.41,253.995,329.19,253.775,329.19,253.495z M329.19,248.496
						c0-0.28,0.22-0.5,0.5-0.5l0,0c0.27,0,0.5,0.22,0.5,0.5l0,0c0,0.28-0.23,0.5-0.5,0.5l0,0
						C329.41,248.996,329.19,248.775,329.19,248.496z M329.19,243.496c0-0.28,0.22-0.5,0.5-0.5l0,0c0.27,0,0.5,0.22,0.5,0.5l0,0
						c0,0.28-0.23,0.5-0.5,0.5l0,0C329.41,243.996,329.19,243.775,329.19,243.496z"/>
				</g>
				<g>
					<path style="fill:#FFFFFF;" d="M323.62,272.695c0-0.28,0.23-0.5,0.5-0.5l0,0c0.28,0,0.5,0.22,0.5,0.5l0,0
						c0,0.271-0.22,0.5-0.5,0.5l0,0C323.851,273.195,323.62,272.966,323.62,272.695z M323.62,267.695c0-0.28,0.23-0.5,0.5-0.5l0,0
						c0.28,0,0.5,0.22,0.5,0.5l0,0c0,0.28-0.22,0.5-0.5,0.5l0,0C323.851,268.195,323.62,267.976,323.62,267.695z M323.62,262.695
						c0-0.28,0.23-0.5,0.5-0.5l0,0c0.28,0,0.5,0.22,0.5,0.5l0,0c0,0.271-0.22,0.5-0.5,0.5l0,0
						C323.851,263.195,323.62,262.966,323.62,262.695z M323.62,257.695c0-0.28,0.23-0.5,0.5-0.5l0,0c0.28,0,0.5,0.22,0.5,0.5l0,0
						c0,0.271-0.22,0.5-0.5,0.5l0,0C323.851,258.195,323.62,257.966,323.62,257.695z M323.62,252.695c0-0.28,0.23-0.5,0.5-0.5l0,0
						c0.28,0,0.5,0.22,0.5,0.5l0,0c0,0.28-0.22,0.5-0.5,0.5l0,0C323.851,253.195,323.62,252.976,323.62,252.695z"/>
				</g>
				<g>
					<path style="fill:#FFFFFF;" d="M329.19,304.905c0-0.28,0.22-0.5,0.5-0.5l0,0c0.27,0,0.5,0.22,0.5,0.5l0,0
						c0,0.271-0.23,0.5-0.5,0.5l0,0C329.41,305.405,329.19,305.176,329.19,304.905z M329.19,299.905c0-0.28,0.22-0.5,0.5-0.5l0,0
						c0.27,0,0.5,0.22,0.5,0.5l0,0c0,0.271-0.23,0.5-0.5,0.5l0,0C329.41,300.405,329.19,300.176,329.19,299.905z M329.19,294.905
						c0-0.28,0.22-0.5,0.5-0.5l0,0c0.27,0,0.5,0.22,0.5,0.5l0,0c0,0.271-0.23,0.5-0.5,0.5l0,0
						C329.41,295.405,329.19,295.176,329.19,294.905z M329.19,289.905c0-0.28,0.22-0.5,0.5-0.5l0,0c0.27,0,0.5,0.22,0.5,0.5l0,0
						c0,0.28-0.23,0.5-0.5,0.5l0,0C329.41,290.405,329.19,290.186,329.19,289.905z"/>
				</g>
				<g>
					<path style="fill:#FFFFFF;" d="M323.62,306.355c0-0.28,0.23-0.5,0.5-0.5l0,0c0.28,0,0.5,0.22,0.5,0.5l0,0
						c0,0.27-0.22,0.5-0.5,0.5l0,0C323.851,306.855,323.62,306.625,323.62,306.355z M323.62,301.355c0-0.28,0.23-0.5,0.5-0.5l0,0
						c0.28,0,0.5,0.22,0.5,0.5l0,0c0,0.27-0.22,0.5-0.5,0.5l0,0C323.851,301.855,323.62,301.625,323.62,301.355z M323.62,296.355
						c0-0.28,0.23-0.5,0.5-0.5l0,0c0.28,0,0.5,0.22,0.5,0.5l0,0c0,0.27-0.22,0.5-0.5,0.5l0,0
						C323.851,296.855,323.62,296.625,323.62,296.355z M323.62,291.355c0-0.28,0.23-0.5,0.5-0.5l0,0c0.28,0,0.5,0.22,0.5,0.5l0,0
						c0,0.27-0.22,0.5-0.5,0.5l0,0C323.851,291.855,323.62,291.625,323.62,291.355z"/>
				</g>
				<g>
					<path style="fill:#FFFFFF;" d="M278.19,191.316c0-0.27,0.229-0.5,0.5-0.5l0,0c0.279,0,0.5,0.23,0.5,0.5l0,0
						c0,0.28-0.221,0.5-0.5,0.5l0,0C278.42,191.816,278.19,191.596,278.19,191.316z M273.19,191.316c0-0.27,0.229-0.5,0.5-0.5l0,0
						c0.279,0,0.5,0.23,0.5,0.5l0,0c0,0.28-0.221,0.5-0.5,0.5l0,0C273.42,191.816,273.19,191.596,273.19,191.316z M268.19,191.316
						c0-0.27,0.229-0.5,0.5-0.5l0,0c0.279,0,0.5,0.23,0.5,0.5l0,0c0,0.28-0.221,0.5-0.5,0.5l0,0
						C268.42,191.816,268.19,191.596,268.19,191.316z"/>
				</g>
				<g>
					<path style="fill:#FFFFFF;" d="M286.45,197.215c0-0.28,0.229-0.5,0.5-0.5l0,0c0.28,0,0.5,0.22,0.5,0.5l0,0
						c0,0.28-0.22,0.5-0.5,0.5l0,0C286.68,197.715,286.45,197.496,286.45,197.215z M281.45,197.215c0-0.28,0.229-0.5,0.5-0.5l0,0
						c0.28,0,0.5,0.22,0.5,0.5l0,0c0,0.28-0.22,0.5-0.5,0.5l0,0C281.68,197.715,281.45,197.496,281.45,197.215z M276.45,197.215
						c0-0.28,0.229-0.5,0.5-0.5l0,0c0.28,0,0.5,0.22,0.5,0.5l0,0c0,0.28-0.22,0.5-0.5,0.5l0,0
						C276.68,197.715,276.45,197.496,276.45,197.215z M271.45,197.215c0-0.28,0.229-0.5,0.5-0.5l0,0c0.28,0,0.5,0.22,0.5,0.5l0,0
						c0,0.28-0.22,0.5-0.5,0.5l0,0C271.68,197.715,271.45,197.496,271.45,197.215z"/>
				</g>
				<g>
					<path style="fill:#FFFFFF;" d="M287.97,203.116c0-0.28,0.23-0.5,0.511-0.5l0,0c0.27,0,0.5,0.22,0.5,0.5l0,0
						c0,0.27-0.23,0.5-0.5,0.5l0,0C288.2,203.616,287.97,203.385,287.97,203.116z M282.98,203.116c0-0.28,0.22-0.5,0.5-0.5l0,0
						c0.27,0,0.5,0.22,0.5,0.5l0,0c0,0.27-0.23,0.5-0.5,0.5l0,0C283.2,203.616,282.98,203.385,282.98,203.116z M277.98,203.116
						c0-0.28,0.22-0.5,0.5-0.5l0,0c0.27,0,0.5,0.22,0.5,0.5l0,0c0,0.27-0.23,0.5-0.5,0.5l0,0
						C278.2,203.616,277.98,203.385,277.98,203.116z"/>
				</g>
			</g>
		</g>
		<path style="fill:#FAB21F;" d="M348.544,135.334H151.456c-8.905,0-16.122,7.218-16.122,16.122v197.088
			c0,8.904,7.217,16.121,16.122,16.121h197.088c8.904,0,16.122-7.217,16.122-16.121V151.456
			C364.666,142.552,357.448,135.334,348.544,135.334z M353.381,151.456v186.538L162.009,146.62h186.535
			C351.211,146.62,353.381,148.789,353.381,151.456z M146.619,348.544V162.009L337.99,353.382H151.456
			C148.789,353.382,146.619,351.212,146.619,348.544z"/>
	</g>
</g>
</svg>
